<?xml version="1.0" encoding="UTF-8"?>
<svg width="26px" height="26px" viewBox="0 0 26 26" version="1.1" xmlns="http://www.w3.org/2000/svg" xmlns:xlink="http://www.w3.org/1999/xlink">
    <!-- Generator: sketchtool 55.2 (78181) - https://sketchapp.com -->
    <title>2FF9E857-E403-4F06-8AF9-AF1FCB11898E</title>
    <desc>Created with sketchtool.</desc>
    <g id="🖥-Main-Dashboard" stroke="none" stroke-width="1" fill="none" fill-rule="evenodd">
        <g id="302-Dashboard-Scrolled-+-Swipe-ETH" transform="translate(-299.000000, -111.000000)" fill="#93B0C1" fill-rule="nonzero">
            <g id="Top-Cards" transform="translate(-249.000000, 91.000000)">
                <g id="dashboard-box-1" transform="translate(279.000000, 0.000000)">
                    <g id="icon-swap" transform="translate(269.000000, 20.000000)">
                        <path d="M25.1002939,20.2959184 C25.1002939,19.935102 24.8084571,19.6432653 24.4476408,19.6432653 L2.23090612,19.6432653 L6.13621224,15.7379592 C6.39090612,15.4832653 6.39090612,15.0746939 6.13621224,14.82 C5.88151837,14.5653061 5.47294694,14.5653061 5.21825306,14.82 L0.203967347,19.8342857 C-0.0507265306,20.0889796 -0.0507265306,20.497551 0.203967347,20.7522449 L5.21825306,25.7665306 C5.3456,25.8938776 5.5100898,25.957551 5.67988571,25.957551 C5.84968163,25.957551 6.01417143,25.8938776 6.14151837,25.7665306 C6.39621224,25.5118367 6.39621224,25.1032653 6.14151837,24.8485714 L2.23621224,20.9432653 L24.4582531,20.9432653 C24.8084571,20.9432653 25.1002939,20.6567347 25.1002939,20.2959184 Z" id="Shape"></path>
                        <path d="M24.9092735,5.2 L19.8949878,0.191020408 C19.6402939,-0.0636734694 19.2317224,-0.0636734694 18.9770286,0.191020408 C18.7223347,0.445714286 18.7223347,0.854285714 18.9770286,1.10897959 L22.8823347,5.01428571 L0.660293878,5.01428571 C0.299477551,5.01428571 0.00764081633,5.30612245 0.00764081633,5.66693878 C0.00764081633,6.0277551 0.299477551,6.31959184 0.660293878,6.31959184 L22.8823347,6.31959184 L18.9770286,10.2142857 C18.7223347,10.4689796 18.7223347,10.877551 18.9770286,11.1322449 C19.1043755,11.2595918 19.2688653,11.3232653 19.4386612,11.3232653 C19.6084571,11.3232653 19.7729469,11.2595918 19.9002939,11.1322449 L24.9145796,6.11795918 C25.1639673,5.86857143 25.1639673,5.45469388 24.9092735,5.2 Z" id="Shape"></path>
                    </g>
                </g>
            </g>
        </g>
    </g>
</svg>