<?xml version="1.0" encoding="UTF-8"?>
<svg width="66px" height="66px" viewBox="0 0 66 66" version="1.1" xmlns="http://www.w3.org/2000/svg" xmlns:xlink="http://www.w3.org/1999/xlink">
    <!-- Generator: sketchtool 55.2 (78181) - https://sketchapp.com -->
    <title>F37C6690-C2C7-4C89-9111-A0B7C901894B</title>
    <desc>Created with sketchtool.</desc>
    <defs>
        <linearGradient x1="50%" y1="97.783801%" x2="41.8489583%" y2="-16.3970588%" id="linearGradient-1">
            <stop stop-color="#93B0C1" offset="0%"></stop>
            <stop stop-color="#647A86" offset="100%"></stop>
        </linearGradient>
    </defs>
    <g id="🖥-Main-Dashboard" stroke="none" stroke-width="1" fill="none" fill-rule="evenodd">
        <g id="303-Transaction-Details" transform="translate(-155.000000, -137.000000)" fill="url(#linearGradient-1)" fill-rule="nonzero">
            <g id="Modal-mobile" transform="translate(20.000000, 41.000000)">
                <g id="modal-background" transform="translate(0.000000, 0.000000)">
                    <g id="Text-Top" transform="translate(134.000000, 96.000000)">
                        <path d="M34,0 C15.785156,0 1,14.785156 1,33 C1,51.214844 15.785156,66 34,66 C52.214844,66 67,51.214844 67,33 C67,14.785156 52.214844,0 34,0 Z M34,2 C51.132813,2 65,15.867188 65,33 C65,50.132813 51.132813,64 34,64 C16.867188,64 3,50.132813 3,33 C3,15.867188 16.867188,2 34,2 Z M34,5 C33.449219,5 33,5.449219 33,6 C33,6.550781 33.449219,7 34,7 C34.550781,7 35,6.550781 35,6 C35,5.449219 34.550781,5 34,5 Z M39.292969,5.515625 C38.804688,5.503906 38.382813,5.84375 38.285156,6.324219 C38.179688,6.863281 38.53125,7.390625 39.074219,7.5 C39.613281,7.605469 40.140625,7.253906 40.25,6.714844 C40.355469,6.171875 40.003906,5.644531 39.464844,5.535156 C39.40625,5.527344 39.351563,5.519531 39.292969,5.515625 Z M28.738281,5.519531 C28.671875,5.519531 28.605469,5.523438 28.539063,5.535156 C27.996094,5.644531 27.644531,6.171875 27.753906,6.714844 C27.804688,6.972656 27.957031,7.203125 28.179688,7.351563 C28.398438,7.496094 28.667969,7.550781 28.929688,7.5 C29.472656,7.390625 29.824219,6.867188 29.714844,6.324219 C29.621094,5.859375 29.214844,5.523438 28.738281,5.519531 Z M23.675781,7.054688 C23.542969,7.054688 23.410156,7.078125 23.285156,7.128906 C22.773438,7.34375 22.53125,7.925781 22.746094,8.4375 C22.957031,8.949219 23.539063,9.191406 24.050781,8.980469 C24.5625,8.765625 24.804688,8.183594 24.59375,7.671875 C24.4375,7.300781 24.078125,7.058594 23.675781,7.054688 Z M44.355469,7.054688 C43.941406,7.046875 43.566406,7.289063 43.40625,7.671875 C43.195313,8.183594 43.4375,8.765625 43.949219,8.980469 C44.460938,9.191406 45.042969,8.949219 45.253906,8.4375 C45.46875,7.925781 45.226563,7.34375 44.714844,7.128906 C44.601563,7.082031 44.476563,7.058594 44.355469,7.054688 Z M19.011719,9.546875 C18.808594,9.546875 18.609375,9.605469 18.441406,9.71875 C17.984375,10.023438 17.859375,10.644531 18.167969,11.105469 C18.472656,11.5625 19.09375,11.6875 19.554688,11.378906 C20.015625,11.074219 20.136719,10.453125 19.832031,9.996094 C19.648438,9.71875 19.339844,9.550781 19.011719,9.546875 Z M49.015625,9.546875 C48.675781,9.542969 48.355469,9.710938 48.167969,9.996094 C47.859375,10.453125 47.984375,11.074219 48.441406,11.378906 C48.902344,11.6875 49.523438,11.5625 49.828125,11.105469 C49.976563,10.886719 50.03125,10.613281 49.980469,10.355469 C49.929688,10.09375 49.777344,9.863281 49.554688,9.71875 C49.394531,9.609375 49.210938,9.550781 49.015625,9.546875 Z M14.921875,12.90625 C14.652344,12.90625 14.390625,13.011719 14.203125,13.203125 C13.8125,13.589844 13.8125,14.226563 14.203125,14.613281 C14.589844,15.003906 15.226563,15.003906 15.613281,14.613281 C16.003906,14.226563 16.003906,13.589844 15.613281,13.203125 C15.429688,13.015625 15.183594,12.910156 14.921875,12.90625 Z M53.105469,12.90625 C52.835938,12.90625 52.574219,13.011719 52.386719,13.203125 C51.996094,13.589844 51.996094,14.226563 52.386719,14.613281 C52.773438,15.003906 53.410156,15.003906 53.796875,14.613281 C54.1875,14.226563 54.1875,13.589844 53.796875,13.203125 C53.613281,13.015625 53.367188,12.910156 53.105469,12.90625 Z M56.460938,17 C56.257813,16.996094 56.0625,17.054688 55.894531,17.167969 C55.4375,17.472656 55.3125,18.09375 55.621094,18.550781 C55.925781,19.011719 56.546875,19.136719 57.003906,18.828125 C57.464844,18.519531 57.589844,17.902344 57.28125,17.441406 C57.097656,17.167969 56.789063,17 56.460938,17 Z M11.566406,17 C11.226563,16.992188 10.90625,17.160156 10.71875,17.441406 C10.414063,17.902344 10.535156,18.523438 10.996094,18.828125 C11.457031,19.136719 12.074219,19.011719 12.382813,18.554688 C12.6875,18.09375 12.566406,17.472656 12.105469,17.167969 C11.945313,17.0625 11.761719,17.003906 11.566406,17 Z M58.953125,21.667969 C58.820313,21.664063 58.6875,21.691406 58.5625,21.742188 C58.050781,21.953125 57.808594,22.539063 58.019531,23.046875 C58.234375,23.558594 58.816406,23.800781 59.328125,23.589844 C59.839844,23.378906 60.082031,22.792969 59.871094,22.28125 C59.714844,21.914063 59.355469,21.667969 58.953125,21.667969 Z M9.078125,21.667969 C8.664063,21.660156 8.289063,21.902344 8.132813,22.285156 C7.921875,22.796875 8.164063,23.378906 8.671875,23.59375 C9.183594,23.804688 9.769531,23.5625 9.980469,23.050781 C10.191406,22.539063 9.949219,21.957031 9.4375,21.746094 C9.324219,21.695313 9.203125,21.671875 9.078125,21.667969 Z M60.484375,26.734375 C60.417969,26.730469 60.351563,26.738281 60.285156,26.75 C59.746094,26.859375 59.394531,27.386719 59.5,27.925781 C59.609375,28.46875 60.136719,28.820313 60.675781,28.714844 C61.21875,28.605469 61.570313,28.078125 61.464844,27.535156 C61.371094,27.070313 60.960938,26.734375 60.484375,26.734375 Z M7.546875,26.734375 C7.058594,26.722656 6.636719,27.058594 6.539063,27.535156 C6.488281,27.796875 6.539063,28.070313 6.6875,28.289063 C6.835938,28.511719 7.066406,28.664063 7.328125,28.714844 C7.585938,28.765625 7.855469,28.710938 8.078125,28.566406 C8.296875,28.417969 8.449219,28.1875 8.5,27.925781 C8.609375,27.386719 8.257813,26.859375 7.71875,26.75 C7.660156,26.742188 7.605469,26.734375 7.546875,26.734375 Z M7,32 C6.449219,32 6,32.449219 6,33 C6,33.550781 6.449219,34 7,34 C7.550781,34 8,33.550781 8,33 C8,32.449219 7.550781,32 7,32 Z M61,32 C60.449219,32 60,32.449219 60,33 C60,33.550781 60.449219,34 61,34 C61.550781,34 62,33.550781 62,33 C62,32.449219 61.550781,32 61,32 Z M7.523438,37.265625 C7.457031,37.265625 7.390625,37.273438 7.324219,37.285156 C6.78125,37.394531 6.429688,37.921875 6.539063,38.464844 C6.648438,39.003906 7.171875,39.355469 7.714844,39.25 C8.257813,39.140625 8.609375,38.613281 8.5,38.074219 C8.40625,37.605469 8,37.269531 7.523438,37.265625 Z M60.507813,37.265625 C60.019531,37.253906 59.597656,37.59375 59.5,38.074219 C59.394531,38.613281 59.746094,39.140625 60.285156,39.25 C60.828125,39.355469 61.355469,39.003906 61.464844,38.464844 C61.570313,37.921875 61.21875,37.394531 60.675781,37.285156 C60.621094,37.277344 60.566406,37.269531 60.507813,37.265625 Z M58.96875,42.328125 C58.554688,42.320313 58.179688,42.566406 58.019531,42.949219 C57.808594,43.457031 58.050781,44.042969 58.5625,44.253906 C59.074219,44.464844 59.65625,44.222656 59.871094,43.714844 C60.082031,43.203125 59.839844,42.617188 59.328125,42.40625 C59.214844,42.359375 59.089844,42.332031 58.96875,42.328125 Z M9.0625,42.332031 C8.929688,42.332031 8.796875,42.355469 8.671875,42.40625 C8.429688,42.507813 8.234375,42.703125 8.132813,42.949219 C8.03125,43.195313 8.03125,43.46875 8.128906,43.714844 C8.34375,44.226563 8.925781,44.46875 9.4375,44.253906 C9.683594,44.15625 9.878906,43.960938 9.980469,43.714844 C10.082031,43.46875 10.082031,43.195313 9.980469,42.949219 C9.828125,42.578125 9.464844,42.335938 9.0625,42.332031 Z M56.46875,47 C56.128906,46.992188 55.808594,47.160156 55.621094,47.441406 C55.3125,47.902344 55.4375,48.519531 55.894531,48.828125 C56.113281,48.976563 56.386719,49.03125 56.644531,48.976563 C56.90625,48.925781 57.136719,48.773438 57.28125,48.550781 C57.589844,48.09375 57.464844,47.472656 57.003906,47.167969 C56.847656,47.058594 56.660156,47 56.46875,47 Z M11.5625,47 C11.359375,46.996094 11.164063,47.054688 10.996094,47.167969 C10.539063,47.476563 10.414063,48.09375 10.71875,48.554688 C11.027344,49.011719 11.648438,49.136719 12.109375,48.828125 C12.566406,48.523438 12.691406,47.902344 12.382813,47.441406 C12.199219,47.167969 11.890625,47.003906 11.5625,47 Z M14.921875,51.09375 C14.652344,51.089844 14.390625,51.195313 14.203125,51.386719 C13.8125,51.773438 13.8125,52.410156 14.203125,52.796875 C14.589844,53.1875 15.226563,53.1875 15.613281,52.796875 C16.003906,52.410156 16.003906,51.773438 15.613281,51.386719 C15.429688,51.199219 15.183594,51.09375 14.921875,51.09375 Z M53.105469,51.09375 C52.835938,51.089844 52.574219,51.195313 52.386719,51.386719 C51.996094,51.773438 51.996094,52.410156 52.386719,52.796875 C52.773438,53.1875 53.410156,53.1875 53.796875,52.796875 C54.1875,52.410156 54.1875,51.773438 53.796875,51.386719 C53.613281,51.199219 53.367188,51.09375 53.105469,51.09375 Z M19.019531,54.449219 C18.679688,54.441406 18.359375,54.609375 18.171875,54.890625 C17.863281,55.351563 17.988281,55.972656 18.449219,56.28125 C18.90625,56.585938 19.527344,56.460938 19.832031,56.003906 C20.140625,55.542969 20.015625,54.925781 19.558594,54.617188 C19.398438,54.511719 19.210938,54.449219 19.019531,54.449219 Z M49.011719,54.449219 C48.808594,54.445313 48.613281,54.503906 48.445313,54.613281 C48.222656,54.761719 48.070313,54.992188 48.019531,55.253906 C47.96875,55.511719 48.023438,55.785156 48.171875,56.003906 C48.476563,56.460938 49.097656,56.585938 49.558594,56.28125 C50.015625,55.972656 50.140625,55.351563 49.832031,54.890625 C49.652344,54.617188 49.34375,54.449219 49.011719,54.449219 Z M23.691406,56.941406 C23.277344,56.933594 22.902344,57.179688 22.746094,57.5625 C22.535156,58.070313 22.777344,58.65625 23.285156,58.867188 C23.796875,59.078125 24.382813,58.835938 24.59375,58.328125 C24.804688,57.816406 24.5625,57.230469 24.050781,57.019531 C23.9375,56.972656 23.816406,56.945313 23.691406,56.941406 Z M44.339844,56.941406 C44.207031,56.941406 44.074219,56.96875 43.953125,57.019531 C43.707031,57.121094 43.511719,57.316406 43.410156,57.558594 C43.308594,57.804688 43.308594,58.082031 43.40625,58.328125 C43.621094,58.835938 44.203125,59.078125 44.714844,58.867188 C44.960938,58.765625 45.15625,58.570313 45.257813,58.328125 C45.359375,58.082031 45.359375,57.804688 45.257813,57.5625 C45.105469,57.1875 44.742188,56.945313 44.339844,56.941406 Z M28.761719,58.480469 C28.273438,58.46875 27.847656,58.808594 27.753906,59.285156 C27.644531,59.828125 27.996094,60.351563 28.539063,60.460938 C29.082031,60.570313 29.605469,60.21875 29.714844,59.675781 C29.824219,59.132813 29.472656,58.609375 28.929688,58.5 C28.875,58.488281 28.816406,58.480469 28.761719,58.480469 Z M39.269531,58.484375 C39.203125,58.480469 39.136719,58.488281 39.074219,58.5 C38.53125,58.609375 38.179688,59.132813 38.285156,59.675781 C38.339844,59.9375 38.492188,60.164063 38.710938,60.3125 C38.933594,60.460938 39.203125,60.515625 39.464844,60.464844 C39.722656,60.410156 39.953125,60.257813 40.101563,60.039063 C40.246094,59.816406 40.300781,59.546875 40.25,59.285156 C40.15625,58.820313 39.746094,58.484375 39.269531,58.484375 Z M34,59 C34.550781,59 35,59.449219 35,60 C35,60.550781 34.550781,61 34,61 C33.449219,61 33,60.550781 33,60 C33,59.449219 33.449219,59 34,59 Z M46.3328494,18.0036011 C46.5288951,17.9819323 46.7229093,18.0589992 46.8506512,18.2092838 C46.9783932,18.3595684 47.0231971,18.563464 46.9702278,18.7534581 L39.7716007,47.5479664 C39.7205655,47.7553565 39.5621109,47.919377 39.3566056,47.9775389 C39.1511004,48.0357007 38.9301909,47.9790474 38.7780402,47.8291628 L30.998274,40.1618751 L25.8430072,45.9920132 C25.6755954,46.1976407 25.3921625,46.2673913 25.1484427,46.16294 C24.904723,46.0584886 24.7597611,45.8051403 24.7932074,45.542099 L25.5805572,37.4436435 L17.407116,34.7629048 C17.1818101,34.688239 17.0225904,34.4866031 17.0022043,34.2501244 C16.9818182,34.0136458 17.1041805,33.7877356 17.3133839,33.6756121 L46.1078923,18.0785868 C46.1770755,18.0387249 46.2535857,18.0132215 46.3328494,18.0036011 Z M45.4705138,19.765765 L19.0942943,34.069287 L26.1242035,36.3563509 L41.2150754,24.1336819 C41.3624194,23.9796405 41.5807509,23.9159075 41.7878267,23.9664904 C41.9949024,24.0170733 42.1592626,24.1742874 42.2189944,24.3789117 C42.2787262,24.583536 42.2247549,24.8044832 42.077411,24.9585246 L31.7481309,39.2245538 L38.8530259,46.2357167 L45.4705138,19.765765 Z M38.459351,27.9017133 L26.7990748,37.3311649 L26.1616964,43.8174279 L30.4546276,38.9995967 C30.4660476,38.9801538 30.4785655,38.961377 30.4921205,38.9433575 L30.5296133,38.9058646 C30.5463551,38.8794269 30.5651601,38.8543536 30.5858526,38.8308789 L38.459351,27.9017133 Z" id="icon-sent-large"></path>
                    </g>
                </g>
            </g>
        </g>
    </g>
</svg>