<?xml version="1.0" encoding="UTF-8"?>
<svg width="69px" height="69px" viewBox="0 0 69 69" version="1.1" xmlns="http://www.w3.org/2000/svg" xmlns:xlink="http://www.w3.org/1999/xlink">
    <title>69D180BB-C24B-4FEC-8925-D91BC2E2BBB0</title>
    <defs>
        <linearGradient x1="48.8998005%" y1="68.33943%" x2="49.6061961%" y2="0%" id="linearGradient-1">
            <stop stop-color="#09A8BA" offset="0%"></stop>
            <stop stop-color="#0ABBD0" offset="100%"></stop>
        </linearGradient>
        <linearGradient x1="11.0842631%" y1="51.9850651%" x2="36.0705554%" y2="44.5879859%" id="linearGradient-2">
            <stop stop-color="#09A8BA" offset="0%"></stop>
            <stop stop-color="#0ABBD0" offset="100%"></stop>
        </linearGradient>
        <linearGradient x1="39.9155147%" y1="68.33943%" x2="46.3903734%" y2="0%" id="linearGradient-3">
            <stop stop-color="#09A8BA" offset="0%"></stop>
            <stop stop-color="#0ABBD0" offset="100%"></stop>
        </linearGradient>
        <linearGradient x1="46.7123988%" y1="68.33943%" x2="48.8232406%" y2="0%" id="linearGradient-4">
            <stop stop-color="#09A8BA" offset="0%"></stop>
            <stop stop-color="#0ABBD0" offset="100%"></stop>
        </linearGradient>
        <linearGradient x1="33.8343437%" y1="68.33943%" x2="44.2136875%" y2="0%" id="linearGradient-5">
            <stop stop-color="#09A8BA" offset="0%"></stop>
            <stop stop-color="#0ABBD0" offset="100%"></stop>
        </linearGradient>
        <linearGradient x1="47.6765045%" y1="68.33943%" x2="49.1683313%" y2="0%" id="linearGradient-6">
            <stop stop-color="#09A8BA" offset="0%"></stop>
            <stop stop-color="#0ABBD0" offset="100%"></stop>
        </linearGradient>
        <linearGradient x1="44.7437454%" y1="68.33943%" x2="48.1185836%" y2="0%" id="linearGradient-7">
            <stop stop-color="#09A8BA" offset="0%"></stop>
            <stop stop-color="#0ABBD0" offset="100%"></stop>
        </linearGradient>
        <linearGradient x1="11.0842631%" y1="65.1322445%" x2="36.0705554%" y2="8.74396182%" id="linearGradient-8">
            <stop stop-color="#09A8BA" offset="0%"></stop>
            <stop stop-color="#0ABBD0" offset="100%"></stop>
        </linearGradient>
        <linearGradient x1="44.5684042%" y1="68.33943%" x2="48.0558222%" y2="0%" id="linearGradient-9">
            <stop stop-color="#09A8BA" offset="0%"></stop>
            <stop stop-color="#0ABBD0" offset="100%"></stop>
        </linearGradient>
        <linearGradient x1="38.2168916%" y1="68.33943%" x2="45.7823706%" y2="0%" id="linearGradient-10">
            <stop stop-color="#09A8BA" offset="0%"></stop>
            <stop stop-color="#0ABBD0" offset="100%"></stop>
        </linearGradient>
        <linearGradient x1="48.949964%" y1="68.33943%" x2="49.6241516%" y2="0%" id="linearGradient-11">
            <stop stop-color="#09A8BA" offset="0%"></stop>
            <stop stop-color="#0ABBD0" offset="100%"></stop>
        </linearGradient>
        <linearGradient x1="29.5416142%" y1="68.33943%" x2="42.6771539%" y2="0%" id="linearGradient-12">
            <stop stop-color="#09A8BA" offset="0%"></stop>
            <stop stop-color="#0ABBD0" offset="100%"></stop>
        </linearGradient>
        <linearGradient x1="11.0842631%" y1="67.052297%" x2="36.0705554%" y2="3.50919568%" id="linearGradient-13">
            <stop stop-color="#09A8BA" offset="0%"></stop>
            <stop stop-color="#0ABBD0" offset="100%"></stop>
        </linearGradient>
        <linearGradient x1="44.5654617%" y1="68.33943%" x2="48.0547689%" y2="0%" id="linearGradient-14">
            <stop stop-color="#09A8BA" offset="0%"></stop>
            <stop stop-color="#0ABBD0" offset="100%"></stop>
        </linearGradient>
        <linearGradient x1="49.4669808%" y1="68.33943%" x2="49.8092119%" y2="0%" id="linearGradient-15">
            <stop stop-color="#09A8BA" offset="0%"></stop>
            <stop stop-color="#0ABBD0" offset="100%"></stop>
        </linearGradient>
        <linearGradient x1="11.0842631%" y1="50.8536505%" x2="36.0705554%" y2="47.6726363%" id="linearGradient-16">
            <stop stop-color="#09A8BA" offset="0%"></stop>
            <stop stop-color="#0ABBD0" offset="100%"></stop>
        </linearGradient>
        <linearGradient x1="44.9405866%" y1="68.33943%" x2="48.1890406%" y2="0%" id="linearGradient-17">
            <stop stop-color="#09A8BA" offset="0%"></stop>
            <stop stop-color="#0ABBD0" offset="100%"></stop>
        </linearGradient>
        <linearGradient x1="47.0005713%" y1="68.33943%" x2="48.9263887%" y2="0%" id="linearGradient-18">
            <stop stop-color="#09A8BA" offset="0%"></stop>
            <stop stop-color="#0ABBD0" offset="100%"></stop>
        </linearGradient>
        <linearGradient x1="11.0842631%" y1="54.0283494%" x2="36.0705554%" y2="39.0172448%" id="linearGradient-19">
            <stop stop-color="#09A8BA" offset="0%"></stop>
            <stop stop-color="#0ABBD0" offset="100%"></stop>
        </linearGradient>
        <linearGradient x1="49.5684205%" y1="68.33943%" x2="49.845521%" y2="0%" id="linearGradient-20">
            <stop stop-color="#09A8BA" offset="0%"></stop>
            <stop stop-color="#0ABBD0" offset="100%"></stop>
        </linearGradient>
        <linearGradient x1="23.9923781%" y1="68.33943%" x2="40.6908681%" y2="0%" id="linearGradient-21">
            <stop stop-color="#09A8BA" offset="0%"></stop>
            <stop stop-color="#0ABBD0" offset="100%"></stop>
        </linearGradient>
        <linearGradient x1="40.8718585%" y1="68.33943%" x2="46.7326858%" y2="0%" id="linearGradient-22">
            <stop stop-color="#09A8BA" offset="0%"></stop>
            <stop stop-color="#0ABBD0" offset="100%"></stop>
        </linearGradient>
    </defs>
    <g id="🛠-Wallet-Setup" stroke="none" stroke-width="1" fill="none" fill-rule="evenodd" stroke-linecap="round">
        <g id="108.5-Unlock-wallet-for-multiple-adresses---Fingerprint" transform="translate(-157.000000, -478.000000)" stroke-width="2">
            <g id="Buttons" transform="translate(39.000000, 479.000000)">
                <g id="icon-touch-id" transform="translate(119.000000, 0.000000)">
                    <path d="M3.71375,18.27175 C0.38575,24.7705 -0.8475,32.399 0.708,40.11275" id="Path" stroke="url(#linearGradient-1)"></path>
                    <path d="M48.21875,3.45875 C41.833,0.32425 34.401,-0.80625 26.8885,0.7085 C18.3545,2.429 11.24025,7.25525 6.484,13.77275" id="Path" stroke="url(#linearGradient-2)"></path>
                    <path d="M67,34.17375 C66.1773048,17.3245 59.859875,11.8692016 53.0454967,6.35553714 C52.9378847,6.26846588 52.8279342,6.19716582 52.71975,6.12125" id="Path" stroke="url(#linearGradient-3)"></path>
                    <path d="M24.8635,65.8225 C32.35775,57.29275 35.92575,45.4875 33.50825,33.499" id="Path" stroke="url(#linearGradient-4)"></path>
                    <path d="M27.794,53.0845 C26.15525,57.284 23.68325,61.11725 20.539,64.341" id="Path" stroke="url(#linearGradient-5)"></path>
                    <path d="M29.54675,66.724 C36.8095,57.43025 40.12225,45.14075 37.608,32.67275 L37.621,32.6685 C37.162,30.3925 34.94525,28.9195 32.66925,29.3785 C30.3935,29.8375 28.92075,32.05425 29.3795,34.3305 L29.40925,34.3255 C30.34575,38.97075 30.27175,43.5855 29.33825,47.94175" id="Path" stroke="url(#linearGradient-6)"></path>
                    <path d="M25.6275,37.036 C26.93875,46.71125 23.32375,56.0565 16.587,62.35925" id="Path" stroke="url(#linearGradient-7)"></path>
                    <path d="M42.6235,40.8585 C42.61525,37.886 42.31675,34.871 41.707,31.84625 L41.71625,31.84275 C40.8015,27.30475 36.38125,24.3675 31.84325,25.28275 C28.4535,25.96625 25.95675,28.60575 25.2925,31.7895" id="Path" stroke="url(#linearGradient-8)"></path>
                    <path d="M34.56825,66.937 C38.75425,60.81975 41.46975,53.70225 42.3295,46.1625" id="Path" stroke="url(#linearGradient-9)"></path>
                    <path d="M34.4825,20.9745 C33.35025,20.88625 32.1865,20.95125 31.01775,21.187 C24.2175,22.55825 19.8165,29.18175 21.18775,35.9825 L21.21125,35.9785 C23.06575,45.1765 19.638,54.213 13.0165,59.9475" id="Path" stroke="url(#linearGradient-10)"></path>
                    <path d="M39.902,66.331 C45.929,56.0565 48.346,43.61425 45.80625,31.0195 L45.81225,31.017 C45.0565,27.27 42.70625,24.25125 39.6105,22.52525" id="Path" stroke="url(#linearGradient-11)"></path>
                    <path d="M16.11425,48.498 C14.80725,51.86325 12.645,54.8535 9.8405,57.15075" id="Path" stroke="url(#linearGradient-12)"></path>
                    <path d="M50.271,49.765 C51.3115,43.4485 51.246,36.84075 49.90575,30.19325 L49.90825,30.1915 C48.08075,21.129 39.254,15.26425 30.192,17.0915 C21.1295,18.919 15.2645,27.746 17.092,36.80875 L17.1115,36.80475 C17.5455,38.95725 17.6325,41.09925 17.41075,43.17225" id="Path" stroke="url(#linearGradient-13)"></path>
                    <path d="M45.5015,64.72725 C47.0185,61.61325 48.24325,58.34725 49.147,54.972" id="Path" stroke="url(#linearGradient-14)"></path>
                    <path d="M50.4165,21.1895 C52.13725,23.55125 53.38825,26.3135 54.004,29.36575 L54.00525,29.36675 C56.279,40.64275 55.146,51.814 51.31925,61.81825" id="Path" stroke="url(#linearGradient-15)"></path>
                    <path d="M24.7675,14.488 C26.2075,13.828 27.74575,13.32225 29.36575,12.99575 C35.768,11.705 42.07625,13.48625 46.76275,17.3245" id="Path" stroke="url(#linearGradient-16)"></path>
                    <path d="M7.06875,54.0125 C11.79425,50.21625 14.29275,43.983 13.0115,37.6315 L12.99575,37.635 C11.40425,29.74325 14.48075,21.9945 20.3245,17.249" id="Path" stroke="url(#linearGradient-17)"></path>
                    <path d="M8.421,34.494 C8.47475,35.8065 8.632,37.132 8.9,38.46075 L8.91275,38.4575 C9.85075,43.10925 8.089,47.67775 4.7075,50.54325" id="Path" stroke="url(#linearGradient-18)"></path>
                    <path d="M58.6725,31.789 C58.512,30.7075 58.32275,29.6245 58.1045,28.5405 L58.0995,28.54025 C55.36,14.95325 42.1265,6.16075 28.54,8.9 C18.09875,11.0055 10.48825,19.30875 8.768,29.20725" id="Path" stroke="url(#linearGradient-19)"></path>
                    <path d="M57.24575,57.0645 C58.95225,50.66375 59.66175,43.9235 59.2285,37.05725" id="Path" stroke="url(#linearGradient-20)"></path>
                    <path d="M37.422,4.48275 C34.274,4.0575 31.00325,4.14125 27.7145,4.8045 C11.86525,8 1.608,23.4375 4.80375,39.2865 L4.8135,39.284 C5.36825,42.034 4.50725,44.73975 2.73525,46.6515" id="Path" stroke="url(#linearGradient-21)"></path>
                    <path d="M63.026,49.224 C63.89575,42.23775 63.672,34.995 62.20375,27.71375 L62.1955,27.71425 C60.02225,16.93625 52.18775,8.74475 42.41325,5.611" id="Path" stroke="url(#linearGradient-22)"></path>
                </g>
            </g>
        </g>
    </g>
</svg>