<?xml version="1.0" encoding="UTF-8"?>
<svg width="44px" height="44px" viewBox="0 0 44 44" version="1.1" xmlns="http://www.w3.org/2000/svg" xmlns:xlink="http://www.w3.org/1999/xlink">
    <!-- Generator: sketchtool 55.2 (78181) - https://sketchapp.com -->
    <title>BA6EE3E7-5A86-4231-8644-F783EA9B8ED1</title>
    <desc>Created with sketchtool.</desc>
    <g id="🖥-Main-Dashboard" stroke="none" stroke-width="1" fill="none" fill-rule="evenodd">
        <g id="301.1-Dashboard---Empty-State" transform="translate(-51.000000, -111.000000)">
            <g id="Top-Cards" transform="translate(-249.000000, 91.000000)">
                <g id="dashboard-box-1" transform="translate(279.000000, 0.000000)">
                    <g id="icon-dashboard-key" transform="translate(21.000000, 20.000000)">
                        <rect id="Path" fill="#2DA1F8" x="0" y="0" width="44" height="44" rx="8"></rect>
                        <path d="M34.2899445,23.9203128 C32.3240959,21.9415891 29.2827759,21.6709767 27.0176127,23.1008593 L15.3790117,11.384719 C14.8693908,10.8717603 14.0437885,10.8717603 13.5342002,11.384719 L9.38221571,15.5638959 C8.87259476,16.0768546 8.87259476,16.9078641 9.38221571,17.4207899 C9.89183732,17.9337157 10.7174396,17.9337486 11.2270279,17.4207899 L14.4554644,14.171209 L16.7614951,16.4923429 L13.5330586,19.7419238 C13.0234377,20.2548825 13.0234377,21.0858919 13.5330586,21.5988178 C14.0426796,22.1117436 14.8682818,22.1117765 15.3778702,21.5988178 L18.6063067,18.3492369 L25.1715292,24.9574578 C23.7509506,27.237555 24.0210741,30.2987939 25.9856507,32.2774191 C28.2674805,34.5741936 32.0068426,34.5741936 34.2886398,32.2774191 C36.5704371,29.9806446 36.5704697,26.2167919 34.2886398,23.9200502 L34.2899445,23.9203128 Z M32.4451329,25.7772068 C33.7293777,27.0698627 33.7293777,29.1267859 32.4451329,30.4196059 C31.1608881,31.7124259 29.1173489,31.7122618 27.832941,30.4196059 C26.5485331,29.12695 26.5486962,27.0700268 27.832941,25.7772068 C29.1171858,24.4843868 31.1607251,24.4845509 32.4451329,25.7772068 Z" id="icon-key" fill="#FFFFFF" transform="translate(22.500000, 22.500000) scale(-1, 1) rotate(45.000000) translate(-22.500000, -22.500000) "></path>
                    </g>
                </g>
            </g>
        </g>
    </g>
</svg>