<svg width="61" height="60" viewBox="0 0 61 60" fill="none" xmlns="http://www.w3.org/2000/svg">
<path id="icon-wallet" fill-rule="evenodd" clip-rule="evenodd" d="M2.85742 3.6433L52.709 0.0104843C55.0115 -0.156441 57 1.69165 57 4.00072V8.19994C58.7604 8.97602 60 10.7356 60 12.7742V28.0554C60.5927 28.4051 61 29.0453 61 29.7742V37.7742C61 38.503 60.5927 39.1433 60 39.4929V54.7742C60 57.5237 57.7495 59.7742 55 59.7742H5C2.25048 59.7742 0 57.5237 0 54.7742V7.7058V6.77416V6.7058C0 5.10239 1.25765 3.75388 2.85742 3.6433ZM55 4.00072C55 2.82379 54.027 1.91955 52.8535 2.00463L2.99805 5.63939H2.99609C2.42586 5.67881 2 6.1352 2 6.7058C2 7.3087 2.46546 7.77416 3.06836 7.77416H7.08984H55V4.00072ZM2 9.52806C2.32063 9.67982 2.67395 9.77416 3.06836 9.77416H7.08984H55C56.6685 9.77416 58 11.1057 58 12.7742V27.7742H51C47.6984 27.7742 45 30.4725 45 33.7742V34.7742H45.2031C45.6985 37.5844 48.0526 39.7742 51 39.7742H58V54.7742C58 56.4426 56.6685 57.7742 55 57.7742H5C3.33152 57.7742 2 56.4426 2 54.7742V9.52806ZM5 13.7742C5 13.2219 5.44772 12.7742 6 12.7742C6.55228 12.7742 7 13.2219 7 13.7742C7 14.3264 6.55228 14.7742 6 14.7742C5.44772 14.7742 5 14.3264 5 13.7742ZM10 12.7742C9.44771 12.7742 9 13.2219 9 13.7742C9 14.3264 9.44771 14.7742 10 14.7742C10.5523 14.7742 11 14.3264 11 13.7742C11 13.2219 10.5523 12.7742 10 12.7742ZM13 13.7742C13 13.2219 13.4477 12.7742 14 12.7742C14.5523 12.7742 15 13.2219 15 13.7742C15 14.3264 14.5523 14.7742 14 14.7742C13.4477 14.7742 13 14.3264 13 13.7742ZM18 12.7742C17.4477 12.7742 17 13.2219 17 13.7742C17 14.3264 17.4477 14.7742 18 14.7742C18.5523 14.7742 19 14.3264 19 13.7742C19 13.2219 18.5523 12.7742 18 12.7742ZM21 13.7742C21 13.2219 21.4477 12.7742 22 12.7742C22.5523 12.7742 23 13.2219 23 13.7742C23 14.3264 22.5523 14.7742 22 14.7742C21.4477 14.7742 21 14.3264 21 13.7742ZM26 12.7742C25.4477 12.7742 25 13.2219 25 13.7742C25 14.3264 25.4477 14.7742 26 14.7742C26.5523 14.7742 27 14.3264 27 13.7742C27 13.2219 26.5523 12.7742 26 12.7742ZM29 13.7742C29 13.2219 29.4477 12.7742 30 12.7742C30.5523 12.7742 31 13.2219 31 13.7742C31 14.3264 30.5523 14.7742 30 14.7742C29.4477 14.7742 29 14.3264 29 13.7742ZM34 12.7742C33.4477 12.7742 33 13.2219 33 13.7742C33 14.3264 33.4477 14.7742 34 14.7742C34.5523 14.7742 35 14.3264 35 13.7742C35 13.2219 34.5523 12.7742 34 12.7742ZM37 13.7742C37 13.2219 37.4477 12.7742 38 12.7742C38.5523 12.7742 39 13.2219 39 13.7742C39 14.3264 38.5523 14.7742 38 14.7742C37.4477 14.7742 37 14.3264 37 13.7742ZM42 12.7742C41.4477 12.7742 41 13.2219 41 13.7742C41 14.3264 41.4477 14.7742 42 14.7742C42.5523 14.7742 43 14.3264 43 13.7742C43 13.2219 42.5523 12.7742 42 12.7742ZM45 13.7742C45 13.2219 45.4477 12.7742 46 12.7742C46.5523 12.7742 47 13.2219 47 13.7742C47 14.3264 46.5523 14.7742 46 14.7742C45.4477 14.7742 45 14.3264 45 13.7742ZM50 12.7742C49.4477 12.7742 49 13.2219 49 13.7742C49 14.3264 49.4477 14.7742 50 14.7742C50.5523 14.7742 51 14.3264 51 13.7742C51 13.2219 50.5523 12.7742 50 12.7742ZM53 13.7742C53 13.2219 53.4477 12.7742 54 12.7742C54.5523 12.7742 55 13.2219 55 13.7742C55 14.3264 54.5523 14.7742 54 14.7742C53.4477 14.7742 53 14.3264 53 13.7742ZM6 16.7742C5.44772 16.7742 5 17.2219 5 17.7742C5 18.3264 5.44772 18.7742 6 18.7742C6.55228 18.7742 7 18.3264 7 17.7742C7 17.2219 6.55228 16.7742 6 16.7742ZM53 17.7742C53 17.2219 53.4477 16.7742 54 16.7742C54.5523 16.7742 55 17.2219 55 17.7742C55 18.3264 54.5523 18.7742 54 18.7742C53.4477 18.7742 53 18.3264 53 17.7742ZM6 20.7742C5.44772 20.7742 5 21.2219 5 21.7742C5 22.3264 5.44772 22.7742 6 22.7742C6.55228 22.7742 7 22.3264 7 21.7742C7 21.2219 6.55228 20.7742 6 20.7742ZM53 21.7742C53 21.2219 53.4477 20.7742 54 20.7742C54.5523 20.7742 55 21.2219 55 21.7742C55 22.3264 54.5523 22.7742 54 22.7742C53.4477 22.7742 53 22.3264 53 21.7742ZM6 24.7742C5.44772 24.7742 5 25.2219 5 25.7742C5 26.3264 5.44772 26.7742 6 26.7742C6.55228 26.7742 7 26.3264 7 25.7742C7 25.2219 6.55228 24.7742 6 24.7742ZM53 25.7742C53 25.2219 53.4477 24.7742 54 24.7742C54.5523 24.7742 55 25.2219 55 25.7742C55 26.3264 54.5523 26.7742 54 26.7742C53.4477 26.7742 53 26.3264 53 25.7742ZM6 28.7742C5.44772 28.7742 5 29.2219 5 29.7742C5 30.3264 5.44772 30.7742 6 30.7742C6.55228 30.7742 7 30.3264 7 29.7742C7 29.2219 6.55228 28.7742 6 28.7742ZM47 33.7742C47 35.9945 48.7796 37.7742 51 37.7742H59V29.7742H51C48.7796 29.7742 47 31.5538 47 33.7742ZM51 31.7742C49.8954 31.7742 49 32.6696 49 33.7742C49 34.8787 49.8954 35.7742 51 35.7742C52.1046 35.7742 53 34.8787 53 33.7742C53 32.6696 52.1046 31.7742 51 31.7742ZM5 33.7742C5 33.2219 5.44772 32.7742 6 32.7742C6.55228 32.7742 7 33.2219 7 33.7742C7 34.3264 6.55228 34.7742 6 34.7742C5.44772 34.7742 5 34.3264 5 33.7742ZM6 36.7742C5.44772 36.7742 5 37.2219 5 37.7742C5 38.3264 5.44772 38.7742 6 38.7742C6.55228 38.7742 7 38.3264 7 37.7742C7 37.2219 6.55228 36.7742 6 36.7742ZM5 41.7742C5 41.2219 5.44772 40.7742 6 40.7742C6.55228 40.7742 7 41.2219 7 41.7742C7 42.3264 6.55228 42.7742 6 42.7742C5.44772 42.7742 5 42.3264 5 41.7742ZM54 40.7742C53.4477 40.7742 53 41.2219 53 41.7742C53 42.3264 53.4477 42.7742 54 42.7742C54.5523 42.7742 55 42.3264 55 41.7742C55 41.2219 54.5523 40.7742 54 40.7742ZM5 45.7742C5 45.2219 5.44772 44.7742 6 44.7742C6.55228 44.7742 7 45.2219 7 45.7742C7 46.3264 6.55228 46.7742 6 46.7742C5.44772 46.7742 5 46.3264 5 45.7742ZM54 44.7742C53.4477 44.7742 53 45.2219 53 45.7742C53 46.3264 53.4477 46.7742 54 46.7742C54.5523 46.7742 55 46.3264 55 45.7742C55 45.2219 54.5523 44.7742 54 44.7742ZM5 49.7742C5 49.2219 5.44772 48.7742 6 48.7742C6.55228 48.7742 7 49.2219 7 49.7742C7 50.3264 6.55228 50.7742 6 50.7742C5.44772 50.7742 5 50.3264 5 49.7742ZM54 48.7742C53.4477 48.7742 53 49.2219 53 49.7742C53 50.3264 53.4477 50.7742 54 50.7742C54.5523 50.7742 55 50.3264 55 49.7742C55 49.2219 54.5523 48.7742 54 48.7742ZM5 53.7742C5 53.2219 5.44772 52.7742 6 52.7742C6.55228 52.7742 7 53.2219 7 53.7742C7 54.3264 6.55228 54.7742 6 54.7742C5.44772 54.7742 5 54.3264 5 53.7742ZM10 52.7742C9.44771 52.7742 9 53.2219 9 53.7742C9 54.3264 9.44771 54.7742 10 54.7742C10.5523 54.7742 11 54.3264 11 53.7742C11 53.2219 10.5523 52.7742 10 52.7742ZM13 53.7742C13 53.2219 13.4477 52.7742 14 52.7742C14.5523 52.7742 15 53.2219 15 53.7742C15 54.3264 14.5523 54.7742 14 54.7742C13.4477 54.7742 13 54.3264 13 53.7742ZM18 52.7742C17.4477 52.7742 17 53.2219 17 53.7742C17 54.3264 17.4477 54.7742 18 54.7742C18.5523 54.7742 19 54.3264 19 53.7742C19 53.2219 18.5523 52.7742 18 52.7742ZM21 53.7742C21 53.2219 21.4477 52.7742 22 52.7742C22.5523 52.7742 23 53.2219 23 53.7742C23 54.3264 22.5523 54.7742 22 54.7742C21.4477 54.7742 21 54.3264 21 53.7742ZM26 52.7742C25.4477 52.7742 25 53.2219 25 53.7742C25 54.3264 25.4477 54.7742 26 54.7742C26.5523 54.7742 27 54.3264 27 53.7742C27 53.2219 26.5523 52.7742 26 52.7742ZM29 53.7742C29 53.2219 29.4477 52.7742 30 52.7742C30.5523 52.7742 31 53.2219 31 53.7742C31 54.3264 30.5523 54.7742 30 54.7742C29.4477 54.7742 29 54.3264 29 53.7742ZM34 52.7742C33.4477 52.7742 33 53.2219 33 53.7742C33 54.3264 33.4477 54.7742 34 54.7742C34.5523 54.7742 35 54.3264 35 53.7742C35 53.2219 34.5523 52.7742 34 52.7742ZM37 53.7742C37 53.2219 37.4477 52.7742 38 52.7742C38.5523 52.7742 39 53.2219 39 53.7742C39 54.3264 38.5523 54.7742 38 54.7742C37.4477 54.7742 37 54.3264 37 53.7742ZM42 52.7742C41.4477 52.7742 41 53.2219 41 53.7742C41 54.3264 41.4477 54.7742 42 54.7742C42.5523 54.7742 43 54.3264 43 53.7742C43 53.2219 42.5523 52.7742 42 52.7742ZM45 53.7742C45 53.2219 45.4477 52.7742 46 52.7742C46.5523 52.7742 47 53.2219 47 53.7742C47 54.3264 46.5523 54.7742 46 54.7742C45.4477 54.7742 45 54.3264 45 53.7742ZM50 52.7742C49.4477 52.7742 49 53.2219 49 53.7742C49 54.3264 49.4477 54.7742 50 54.7742C50.5523 54.7742 51 54.3264 51 53.7742C51 53.2219 50.5523 52.7742 50 52.7742ZM53 53.7742C53 53.2219 53.4477 52.7742 54 52.7742C54.5523 52.7742 55 53.2219 55 53.7742C55 54.3264 54.5523 54.7742 54 54.7742C53.4477 54.7742 53 54.3264 53 53.7742Z" fill="url(#paint0_linear_0_163)"/>
<defs>
<linearGradient id="paint0_linear_0_163" x1="0" y1="0" x2="72.6766" y2="23.2069" gradientUnits="userSpaceOnUse">
<stop stop-color="#00E0FF"/>
<stop offset="1" stop-color="#2DA1F8"/>
</linearGradient>
</defs>
</svg>
