<?xml version="1.0" encoding="UTF-8"?>
<svg width="44px" height="44px" viewBox="0 0 44 44" version="1.1" xmlns="http://www.w3.org/2000/svg" xmlns:xlink="http://www.w3.org/1999/xlink">
    <!-- Generator: sketchtool 64 (101010) - https://sketch.com -->
    <title>72B6B982-9E35-4579-BA45-7C091FB51880</title>
    <desc>Created with sketchtool.</desc>
    <g id="💹-Marketplace" stroke="none" stroke-width="1" fill="none" fill-rule="evenodd">
        <g id="500---SelfKey-Marketplace" transform="translate(-35.000000, -106.000000)" fill="#00C0D9" fill-rule="nonzero">
            <g id="Marketplaces" transform="translate(20.000000, 91.000000)">
                <g id="Marketplace-1">
                    <g id="icon-marketplace-crypto" transform="translate(15.000000, 15.000000)">
                        <path d="M22,0 C9.85677067,0 0,9.85677067 0,22 C0,34.1432293 9.85677067,44 22,44 C34.1432293,44 44,34.1432293 44,22 C44,9.85677067 34.1432293,0 22,0 Z M22,1.33333333 C33.4218753,1.33333333 42.6666667,10.5781253 42.6666667,22 C42.6666667,33.4218753 33.4218753,42.6666667 22,42.6666667 C10.5781253,42.6666667 1.33333333,33.4218753 1.33333333,22 C1.33333333,10.5781253 10.5781253,1.33333333 22,1.33333333 Z M22,3.33333333 C21.6328127,3.33333333 21.3333333,3.63281267 21.3333333,4 C21.3333333,4.36718733 21.6328127,4.66666667 22,4.66666667 C22.3671873,4.66666667 22.6666667,4.36718733 22.6666667,4 C22.6666667,3.63281267 22.3671873,3.33333333 22,3.33333333 Z M25.528646,3.67708333 C25.2031253,3.66927067 24.9218753,3.89583333 24.8567707,4.216146 C24.7864587,4.57552067 25.0208333,4.92708333 25.3828127,5 C25.7421873,5.07031267 26.09375,4.83593733 26.1666667,4.47656267 C26.2369793,4.11458333 26.002604,3.76302067 25.6432293,3.690104 C25.6041667,3.684896 25.5677087,3.67968733 25.528646,3.67708333 Z M18.4921873,3.67968733 C18.4479167,3.67968733 18.403646,3.682292 18.3593753,3.690104 C17.997396,3.76302067 17.7630207,4.11458333 17.8359373,4.47656267 C17.869792,4.64843733 17.971354,4.80208333 18.119792,4.901042 C18.2656253,4.997396 18.4453127,5.033854 18.619792,5 C18.9817707,4.92708333 19.216146,4.57812533 19.1432293,4.216146 C19.0807293,3.90625 18.809896,3.682292 18.4921873,3.67968733 Z M15.1171873,4.70312533 C15.028646,4.70312533 14.940104,4.71875 14.8567707,4.752604 C14.5156253,4.89583333 14.3541667,5.283854 14.497396,5.625 C14.6380207,5.966146 15.026042,6.127604 15.3671873,5.98697933 C15.7083333,5.84375 15.869792,5.45572933 15.7291667,5.11458333 C15.625,4.86718733 15.3854167,4.70572933 15.1171873,4.70312533 Z M28.903646,4.70312533 C28.627604,4.69791667 28.377604,4.85937533 28.2708333,5.11458333 C28.1302087,5.45572933 28.2916667,5.84375 28.6328127,5.98697933 C28.9739587,6.127604 29.3619793,5.966146 29.502604,5.625 C29.6458333,5.283854 29.4843753,4.89583333 29.1432293,4.752604 C29.0677087,4.721354 28.9843753,4.70572933 28.903646,4.70312533 Z M12.0078127,6.36458333 C11.872396,6.36458333 11.7395833,6.403646 11.627604,6.47916667 C11.3229167,6.682292 11.2395833,7.096354 11.4453127,7.403646 C11.6484373,7.70833333 12.0625,7.79166667 12.369792,7.58593733 C12.6770833,7.38281267 12.7578127,6.96875 12.5546873,6.66406267 C12.432292,6.47916667 12.2265627,6.36718733 12.0078127,6.36458333 Z M32.0104167,6.36458333 C31.783854,6.36197933 31.5703127,6.47395867 31.4453127,6.66406267 C31.2395833,6.96875 31.3229167,7.38281267 31.627604,7.58593733 C31.934896,7.79166667 32.3489587,7.70833333 32.5520833,7.403646 C32.651042,7.25781267 32.6875,7.07552067 32.653646,6.903646 C32.619792,6.72916667 32.5182293,6.57552067 32.369792,6.47916667 C32.2630207,6.40625 32.1406253,6.36718733 32.0104167,6.36458333 Z M9.28125,8.60416667 C9.10156267,8.60416667 8.92708333,8.67447933 8.80208333,8.80208333 C8.54166667,9.059896 8.54166667,9.48437533 8.80208333,9.74218733 C9.059896,10.002604 9.48437533,10.002604 9.74218733,9.74218733 C10.002604,9.48437533 10.002604,9.059896 9.74218733,8.80208333 C9.619792,8.67708333 9.45572933,8.60677067 9.28125,8.60416667 Z M34.7369793,8.60416667 C34.557292,8.60416667 34.3828127,8.67447933 34.2578127,8.80208333 C33.997396,9.059896 33.997396,9.48437533 34.2578127,9.74218733 C34.5156253,10.002604 34.940104,10.002604 35.1979167,9.74218733 C35.4583333,9.48437533 35.4583333,9.059896 35.1979167,8.80208333 C35.0755207,8.67708333 34.9114587,8.60677067 34.7369793,8.60416667 Z M36.9739587,11.3333333 C36.838542,11.3307293 36.7083333,11.369792 36.596354,11.4453127 C36.2916667,11.6484373 36.2083333,12.0625 36.4140627,12.3671873 C36.6171873,12.6744793 37.03125,12.7578127 37.3359373,12.5520833 C37.6432293,12.346354 37.7265627,11.934896 37.5208333,11.627604 C37.3984373,11.4453127 37.1927087,11.3333333 36.9739587,11.3333333 Z M7.04427067,11.3333333 C6.81770867,11.3281253 6.60416667,11.440104 6.47916667,11.627604 C6.276042,11.934896 6.35677067,12.3489587 6.66406267,12.5520833 C6.971354,12.7578127 7.38281267,12.6744793 7.588542,12.369792 C7.79166667,12.0625 7.71093733,11.6484373 7.403646,11.4453127 C7.29687533,11.375 7.17447933,11.3359373 7.04427067,11.3333333 Z M22,11.3333333 C16.34375,11.3333333 11.713542,15.7630207 11.3671873,21.3333333 L8,21.3333333 L12.3333333,25.6666667 L16.6666667,21.3333333 L13.3671873,21.3333333 C13.7083333,16.8645833 17.4453127,13.3333333 22,13.3333333 C24.559896,13.3333333 26.8541667,14.4557293 28.4427087,16.2239587 L29.8541667,14.8125 C27.903646,12.6796873 25.1093753,11.3333333 22,11.3333333 Z M38.6354167,14.4453127 C38.5468753,14.4427087 38.4583333,14.4609373 38.375,14.494792 C38.033854,14.6354167 37.872396,15.026042 38.0130207,15.3645833 C38.15625,15.7057293 38.5442707,15.8671873 38.8854167,15.7265627 C39.2265627,15.5859373 39.3880207,15.1953127 39.247396,14.8541667 C39.1432293,14.6093753 38.903646,14.4453127 38.6354167,14.4453127 Z M5.38541667,14.4453127 C5.10937533,14.440104 4.85937533,14.6015627 4.75520867,14.8567707 C4.61458333,15.1979167 4.776042,15.5859373 5.11458333,15.7291667 C5.45572933,15.869792 5.846354,15.7083333 5.98697933,15.3671873 C6.127604,15.026042 5.966146,14.6380207 5.625,14.497396 C5.54947933,14.463542 5.46875,14.4479167 5.38541667,14.4453127 Z M39.65625,17.8229167 C39.6119793,17.8203127 39.5677087,17.8255207 39.5234373,17.8333333 C39.1640627,17.90625 38.9296873,18.2578127 39,18.6171873 C39.0729167,18.9791667 39.4244793,19.213542 39.783854,19.1432293 C40.1458333,19.0703127 40.3802087,18.71875 40.309896,18.3567707 C40.247396,18.0468753 39.9739587,17.8229167 39.65625,17.8229167 Z M4.36458333,17.8229167 C4.03906267,17.815104 3.75781267,18.0390627 3.69270867,18.3567707 C3.658854,18.53125 3.69270867,18.713542 3.79166667,18.8593753 C3.89062533,19.0078127 4.04427067,19.1093753 4.21875,19.1432293 C4.39062533,19.1770833 4.57031267,19.1406253 4.71875,19.0442707 C4.86458333,18.9453127 4.966146,18.7916667 5,18.6171873 C5.07291667,18.2578127 4.838542,17.90625 4.47916667,17.8333333 C4.440104,17.8281253 4.403646,17.8229167 4.36458333,17.8229167 Z M31.6666667,18.3333333 L27.3333333,22.6666667 L30.6328127,22.6666667 C30.2916667,27.1354167 26.5546873,30.6666667 22,30.6666667 C19.440104,30.6666667 17.1458333,29.5442707 15.557292,27.776042 L14.1458333,29.1875 C16.096354,31.3203127 18.8906253,32.6666667 22,32.6666667 C27.65625,32.6666667 32.2864587,28.2369793 32.6328127,22.6666667 L36,22.6666667 L31.6666667,18.3333333 Z M4,21.3333333 C3.63281267,21.3333333 3.33333333,21.6328127 3.33333333,22 C3.33333333,22.3671873 3.63281267,22.6666667 4,22.6666667 C4.36718733,22.6666667 4.66666667,22.3671873 4.66666667,22 C4.66666667,21.6328127 4.36718733,21.3333333 4,21.3333333 Z M40,21.3333333 C39.6328127,21.3333333 39.3333333,21.6328127 39.3333333,22 C39.3333333,22.3671873 39.6328127,22.6666667 40,22.6666667 C40.3671873,22.6666667 40.6666667,22.3671873 40.6666667,22 C40.6666667,21.6328127 40.3671873,21.3333333 40,21.3333333 Z M4.34895867,24.84375 C4.30468733,24.84375 4.26041667,24.8489587 4.216146,24.8567707 C3.85416667,24.9296873 3.619792,25.28125 3.69270867,25.6432293 C3.76562533,26.002604 4.11458333,26.2369793 4.47656267,26.1666667 C4.838542,26.09375 5.07291667,25.7421873 5,25.3828127 C4.9375,25.0703127 4.66666667,24.846354 4.34895867,24.84375 Z M39.6718753,24.84375 C39.346354,24.8359373 39.065104,25.0625 39,25.3828127 C38.9296873,25.7421873 39.1640627,26.09375 39.5234373,26.1666667 C39.8854167,26.2369793 40.2369793,26.002604 40.309896,25.6432293 C40.3802087,25.28125 40.1458333,24.9296873 39.783854,24.8567707 C39.747396,24.8515627 39.7109373,24.846354 39.6718753,24.84375 Z M38.6458333,28.21875 C38.369792,28.213542 38.119792,28.377604 38.0130207,28.6328127 C37.872396,28.971354 38.033854,29.3619793 38.375,29.502604 C38.716146,29.6432293 39.1041667,29.4817707 39.247396,29.1432293 C39.3880207,28.8020833 39.2265627,28.4114587 38.8854167,28.2708333 C38.809896,28.2395833 38.7265627,28.221354 38.6458333,28.21875 Z M5.375,28.221354 C5.28645867,28.221354 5.19791667,28.2369793 5.11458333,28.2708333 C4.95312533,28.338542 4.82291667,28.46875 4.75520867,28.6328127 C4.6875,28.7968753 4.6875,28.9791667 4.752604,29.1432293 C4.89583333,29.4843753 5.283854,29.6458333 5.625,29.502604 C5.78906267,29.4375 5.91927067,29.307292 5.98697933,29.1432293 C6.05468733,28.9791667 6.05468733,28.7968753 5.98697933,28.6328127 C5.88541667,28.3854167 5.64322933,28.2239587 5.375,28.221354 Z M36.9791667,31.3333333 C36.752604,31.3281253 36.5390627,31.440104 36.4140627,31.627604 C36.2083333,31.934896 36.2916667,32.346354 36.596354,32.5520833 C36.7421873,32.651042 36.9244793,32.6875 37.096354,32.651042 C37.2708333,32.6171873 37.4244793,32.5156253 37.5208333,32.3671873 C37.7265627,32.0625 37.6432293,31.6484373 37.3359373,31.4453127 C37.2317707,31.372396 37.1067707,31.3333333 36.9791667,31.3333333 Z M7.04166667,31.3333333 C6.90625,31.3307293 6.776042,31.369792 6.66406267,31.4453127 C6.35937533,31.651042 6.276042,32.0625 6.47916667,32.369792 C6.684896,32.6744793 7.09895867,32.7578127 7.40625,32.5520833 C7.71093733,32.3489587 7.79427067,31.934896 7.588542,31.627604 C7.466146,31.4453127 7.26041667,31.3359373 7.04166667,31.3333333 Z M9.28125,34.0625 C9.10156267,34.059896 8.92708333,34.1302087 8.80208333,34.2578127 C8.54166667,34.5156253 8.54166667,34.940104 8.80208333,35.1979167 C9.059896,35.4583333 9.48437533,35.4583333 9.74218733,35.1979167 C10.002604,34.940104 10.002604,34.5156253 9.74218733,34.2578127 C9.619792,34.1328127 9.45572933,34.0625 9.28125,34.0625 Z M34.7369793,34.0625 C34.557292,34.059896 34.3828127,34.1302087 34.2578127,34.2578127 C33.997396,34.5156253 33.997396,34.940104 34.2578127,35.1979167 C34.5156253,35.4583333 34.940104,35.4583333 35.1979167,35.1979167 C35.4583333,34.940104 35.4583333,34.5156253 35.1979167,34.2578127 C35.0755207,34.1328127 34.9114587,34.0625 34.7369793,34.0625 Z M12.0130207,36.2994793 C11.7864587,36.2942707 11.5729167,36.40625 11.4479167,36.59375 C11.2421873,36.901042 11.3255207,37.315104 11.6328127,37.5208333 C11.9375,37.7239587 12.3515627,37.6406253 12.5546873,37.3359373 C12.7604167,37.028646 12.6770833,36.6171873 12.372396,36.4114587 C12.2656253,36.341146 12.1406253,36.2994793 12.0130207,36.2994793 Z M32.0078127,36.2994793 C31.872396,36.2968753 31.7421873,36.3359373 31.6302087,36.408854 C31.4817707,36.5078127 31.3802087,36.6614587 31.346354,36.8359373 C31.3125,37.0078127 31.3489587,37.190104 31.4479167,37.3359373 C31.651042,37.6406253 32.065104,37.7239587 32.372396,37.5208333 C32.6770833,37.315104 32.7604167,36.901042 32.5546873,36.59375 C32.434896,36.4114587 32.2291667,36.2994793 32.0078127,36.2994793 Z M15.127604,37.9609373 C14.8515627,37.9557293 14.6015627,38.119792 14.497396,38.375 C14.3567707,38.713542 14.5182293,39.1041667 14.8567707,39.244792 C15.1979167,39.3854167 15.588542,39.2239587 15.7291667,38.8854167 C15.869792,38.5442707 15.7083333,38.153646 15.3671873,38.0130207 C15.2916667,37.9817707 15.2109373,37.963542 15.127604,37.9609373 Z M28.8932293,37.9609373 C28.8046873,37.9609373 28.716146,37.9791667 28.6354167,38.0130207 C28.471354,38.0807293 28.341146,38.2109373 28.2734373,38.372396 C28.2057293,38.5364587 28.2057293,38.721354 28.2708333,38.8854167 C28.4140627,39.2239587 28.8020833,39.3854167 29.1432293,39.244792 C29.307292,39.1770833 29.4375,39.0468753 29.5052087,38.8854167 C29.5729167,38.721354 29.5729167,38.5364587 29.5052087,38.375 C29.403646,38.125 29.1614587,37.963542 28.8932293,37.9609373 Z M18.5078127,38.9869793 C18.182292,38.9791667 17.8984373,39.2057293 17.8359373,39.5234373 C17.7630207,39.8854167 17.997396,40.2343753 18.3593753,40.307292 C18.721354,40.3802087 19.0703127,40.1458333 19.1432293,39.783854 C19.216146,39.4218753 18.9817707,39.0729167 18.619792,39 C18.5833333,38.9921873 18.5442707,38.9869793 18.5078127,38.9869793 Z M25.5130207,38.9895833 C25.46875,38.9869793 25.4244793,38.9921873 25.3828127,39 C25.0208333,39.0729167 24.7864587,39.4218753 24.8567707,39.783854 C24.8932293,39.9583333 24.994792,40.1093753 25.1406253,40.2083333 C25.2890627,40.307292 25.46875,40.34375 25.6432293,40.309896 C25.815104,40.2734373 25.96875,40.1718753 26.0677087,40.026042 C26.1640627,39.877604 26.2005207,39.6979167 26.1666667,39.5234373 C26.1041667,39.213542 25.8307293,38.9895833 25.5130207,38.9895833 Z M22,39.3333333 C21.6328127,39.3333333 21.3333333,39.6328127 21.3333333,40 C21.3333333,40.3671873 21.6328127,40.6666667 22,40.6666667 C22.3671873,40.6666667 22.6666667,40.3671873 22.6666667,40 C22.6666667,39.6328127 22.3671873,39.3333333 22,39.3333333 Z" id="Shape"></path>
                    </g>
                </g>
            </g>
        </g>
    </g>
</svg>