<?xml version="1.0" encoding="UTF-8"?>
<svg width="16px" height="16px" viewBox="0 0 16 16" version="1.1" xmlns="http://www.w3.org/2000/svg" xmlns:xlink="http://www.w3.org/1999/xlink">
    <!-- Generator: sketchtool 55.2 (78181) - https://sketchapp.com -->
    <title>FA556EED-FD82-4A0A-8BCF-037CE70F4701</title>
    <desc>Created with sketchtool.</desc>
    <g id="🖥-Main-Dashboard" stroke="none" stroke-width="1" fill="none" fill-rule="evenodd">
        <g id="302-Dashboard-Scrolled-+-Swipe-ETH" transform="translate(-261.000000, -330.000000)" fill="#00C0D9">
            <g id="My-Tokens" transform="translate(20.000000, 308.000000)">
                <g id="Heading" transform="translate(14.000000, 0.000000)">
                    <g id="Button/Link" transform="translate(227.000000, 22.000000)">
                        <path d="M7.99999697,5.09090909 C9.6066429,5.09090909 10.9090868,6.39335346 10.9090868,8 C10.9090868,9.60664654 9.6066429,10.9090909 7.99999697,10.9090909 C6.39335103,10.9090909 5.09090716,9.60664654 5.09090716,8 C5.09090716,6.39335346 6.39335103,5.09090909 7.99999697,5.09090909 Z M7.99999697,9.81818182 C9.00415068,9.81818182 9.81817809,9.00415409 9.81817809,8 C9.81817809,6.99584591 9.00415068,6.18181818 7.99999697,6.18181818 C6.99584326,6.18181818 6.18181584,6.99584591 6.18181584,8 C6.18181584,9.00415409 6.99584326,9.81818182 7.99999697,9.81818182 Z M14.9090853,5.81818182 C15.1990434,5.81818021 15.4770728,5.93361398 15.6817627,6.13898627 C15.8864526,6.34435856 16.0009605,6.62277066 15.9999939,6.91272727 L15.9999939,9.09454545 C15.9999939,9.69703791 15.5115775,10.1854545 14.9090853,10.1854545 L14.545449,10.1854545 C14.4464035,10.4980671 14.3248743,10.8031055 14.1818128,11.0981818 L14.4327218,11.3490909 C14.8581084,11.7750073 14.8581084,12.4649927 14.4327218,12.8909091 L12.8909042,14.4327273 C12.4649879,14.858114 11.7750029,14.858114 11.3490866,14.4327273 L11.0981776,14.1818182 C10.8030963,14.3248681 10.4980588,14.446397 10.1854507,14.5454545 L10.1854507,14.9090909 C10.1854507,15.5115834 9.69703423,16 9.094542,16 L6.91272465,16 C6.31023242,16 5.82181597,15.5115834 5.82181597,14.9090909 L5.82181597,14.5454545 C5.50920782,14.446397 5.20417036,14.3248681 4.90908905,14.1818182 L4.65090733,14.4254545 C4.22499106,14.8508413 3.535006,14.8508413 3.10908973,14.4254545 L1.56727213,12.8836364 C1.14188556,12.4577199 1.14188556,11.7677346 1.56727213,11.3418182 L1.81818113,11.0909091 C1.67511964,10.7958328 1.55359043,10.4907944 1.4545449,10.1781818 L1.09090868,10.1781818 C0.488416451,10.1781818 3.45259183e-13,9.68976518 3.65929509e-13,9.08727273 L3.65929509e-13,6.90545455 C3.65929509e-13,6.30296209 0.488416451,5.81454545 1.09090868,5.81454545 L1.4545449,5.81454545 C1.55359043,5.50193291 1.67511964,5.19689449 1.81818113,4.90181818 L1.56727213,4.65090909 C1.14188556,4.22499266 1.14188556,3.53500734 1.56727213,3.10909091 L3.10908973,1.56727273 C3.535006,1.141886 4.22499106,1.141886 4.65090733,1.56727273 L4.90181632,1.81818182 C5.19689764,1.6751319 5.50193509,1.55360299 5.81454325,1.45454545 L5.81454325,1.09090909 C5.81454325,0.488416637 6.3029597,1.81188398e-13 6.90545193,1.81188398e-13 L9.08726928,1.81188398e-13 C9.68976151,1.81188398e-13 10.178178,0.488416637 10.178178,1.09090909 L10.178178,1.45454545 C10.4907861,1.55360299 10.7958236,1.6751319 11.0909049,1.81818182 L11.3490866,1.57090909 C11.7750029,1.14552236 12.4649879,1.14552236 12.8909042,1.57090909 L14.4327218,3.11272727 C14.8581084,3.5386437 14.8581084,4.22862902 14.4327218,4.65454545 L14.1818128,4.90545455 C14.3248743,5.20053085 14.4464035,5.50556927 14.545449,5.81818182 L14.9090853,5.81818182 Z M14.9090853,9.09090909 L14.9090853,6.90909091 L13.7127221,6.90909091 C13.5652765,6.1275634 13.2582798,5.38482912 12.8109042,4.72727273 L13.661813,3.88727273 L12.1199954,2.34545455 L11.2763594,3.18909091 C10.6188032,2.74171518 9.87606922,2.43471834 9.094542,2.28727273 L9.094542,1.09090909 L6.91272465,1.09090909 L6.91272465,2.28 C6.13119743,2.42744562 5.38846344,2.73444245 4.7309073,3.18181818 L3.88727125,2.33818182 L2.34545366,3.88 L3.1890897,4.72363636 C2.74171414,5.38119276 2.43471742,6.12392703 2.28727186,6.90545455 L1.09090868,6.90545455 L1.09090868,9.08727273 L2.27999914,9.08727273 C2.4274447,9.86880024 2.73444141,10.6115345 3.18181697,11.2690909 L2.33818093,12.1127273 L3.87999853,13.6545455 L4.72363457,12.8109091 C5.38114096,13.2583771 6.12389482,13.5653821 6.90545193,13.7127273 L6.90545193,14.9090909 L9.08726928,14.9090909 L9.08726928,13.7163636 C9.86882638,13.5690185 10.6115802,13.2620134 11.2690866,12.8145455 L12.1127227,13.6581818 L13.6545403,12.1163636 L12.8109042,11.2727273 C13.2582798,10.6151709 13.5652765,9.8724366 13.7127221,9.09090909 L14.9090853,9.09090909 Z" id="icon-cog"></path>
                    </g>
                </g>
            </g>
        </g>
    </g>
</svg>