<?xml version="1.0" encoding="UTF-8"?>
<svg width="217px" height="142px" viewBox="0 0 217 142" version="1.1" xmlns="http://www.w3.org/2000/svg" xmlns:xlink="http://www.w3.org/1999/xlink">
    <!-- Generator: sketchtool 55.2 (78181) - https://sketchapp.com -->
    <title>97327C87-8D82-4AAF-944A-BCACC0C5D3A4</title>
    <desc>Created with sketchtool.</desc>
    <defs>
        <linearGradient x1="50%" y1="97.784%" x2="50%" y2="1.559%" id="linearGradient-1">
            <stop stop-color="#08BCCD" offset="0%"></stop>
            <stop stop-color="#2DA1F8" offset="100%"></stop>
        </linearGradient>
        <linearGradient x1="50%" y1="97.784%" x2="43.3433455%" y2="-16.397%" id="linearGradient-2">
            <stop stop-color="#08BCCD" offset="0%"></stop>
            <stop stop-color="#2DA1F8" offset="100%"></stop>
        </linearGradient>
    </defs>
    <g id="🛠-Wallet-Setup" stroke="none" stroke-width="1" fill="none" fill-rule="evenodd">
        <g id="91-Loading" transform="translate(-79.000000, -157.000000)">
            <g id="Logo/Centered" transform="translate(79.000000, 157.000000)">
                <g id="Selfkey-logo-stacked-mainSVG">
                    <g id="selfkey-logo" transform="translate(71.107345, 0.000000)">
                        <ellipse id="Oval" fill="url(#linearGradient-1)" cx="35.7689402" cy="58.5348435" rx="5.5416665" ry="5.41093505"></ellipse>
                        <path d="M75.5681796,20.9053002 L37.7840897,0 L0,20.9053002 L0,62.7159007 L37.7840897,83.6212009 L75.5681796,62.7159007 L75.5681796,20.9053002 Z M49.8524635,18.0750441 C49.8510253,19.3948317 48.7519206,20.4659708 47.3918573,20.4730429 L38.2401523,20.4730429 L38.2401523,25.6369737 L44.9909103,25.6369737 C45.6449105,25.6383371 46.2715663,25.8917489 46.7330198,26.3414612 C47.1944733,26.7911735 47.4529244,27.400348 47.4515164,28.0349725 C47.4537153,29.3560079 46.3522769,30.4288455 44.9909103,30.4316848 L38.2401523,30.4316848 L38.2401523,48.8154845 C38.2441296,48.9003921 38.2441296,48.9852998 38.2401523,49.0702075 C43.0155313,50.2949364 46.1204558,54.7770329 45.5039785,59.5498739 C44.8861754,64.3227148 40.736554,67.9132805 35.7994326,67.9456603 C30.8609853,67.9776045 26.662311,64.4423574 25.9795457,59.6772353 C25.2967805,54.9121133 28.3393944,50.3914225 33.0988642,49.103656 C33.0873666,49.0110049 33.0811702,48.9178066 33.0803037,48.8244898 L33.0803037,18.1998327 C33.0785436,17.5340555 33.349592,16.8949056 33.8337466,16.4231643 C34.3179014,15.951423 34.9754482,15.6857863 35.6615538,15.6847642 C35.8776522,15.6847642 36.092425,15.7130667 36.3018947,15.7658125 C36.5046665,15.7127972 36.7136736,15.6855534 36.923675,15.6847642 L47.3998119,15.6847642 C48.7598752,15.6918363 49.8589798,16.7629755 49.860418,18.082763 L49.8524635,18.0763306 L49.8524635,18.0750441 Z" id="Shape" fill="url(#linearGradient-2)" fill-rule="nonzero"></path>
                    </g>
                    <path d="M24.7447106,121.82381 L24.7447106,123.20616 L21.0330039,123.20616 L21.0330039,121.82381 C21.0330039,121.626331 20.9585414,121.456282 20.8096142,121.313658 C20.660687,121.171033 20.4831225,121.099722 20.2769156,121.099722 L4.46779496,121.099722 C4.26158801,121.099722 4.08402358,121.171033 3.93509633,121.313658 C3.78616909,121.456282 3.71170658,121.626331 3.71170658,121.82381 L3.71170658,126.892427 C3.71170658,127.089906 3.78616909,127.259956 3.93509633,127.40258 C4.08402358,127.545204 4.26158801,127.616516 4.46779496,127.616516 L20.2769156,127.616516 C21.5141572,127.616516 22.5680881,128.03341 23.4387396,128.867213 C24.3093913,129.701015 24.7447106,130.710339 24.7447106,131.895217 L24.7447106,136.963833 C24.7447106,138.148711 24.3093913,139.158036 23.4387396,139.991839 C22.5680881,140.825641 21.5141572,141.242536 20.2769156,141.242536 L4.46779496,141.242536 C3.23055325,141.242536 2.17662241,140.825641 1.30597083,139.991839 C0.435319258,139.158036 0,138.148711 0,136.963833 L0,135.581484 L3.71170658,135.581484 L3.71170658,136.963833 C3.71170658,137.161313 3.78616909,137.331362 3.93509633,137.473987 C4.08402358,137.616611 4.26158801,137.687922 4.46779496,137.687922 L20.2769156,137.687922 C20.4831225,137.687922 20.660687,137.616611 20.8096142,137.473987 C20.9585414,137.331362 21.0330039,137.161313 21.0330039,136.963833 L21.0330039,131.895217 C21.0330039,131.697737 20.9585414,131.527688 20.8096142,131.385064 C20.660687,131.24244 20.4831225,131.17113 20.2769156,131.17113 L4.46779496,131.17113 C3.23055325,131.17113 2.17662241,130.754234 1.30597083,129.920432 C0.435319258,129.086629 0,128.077304 0,126.892427 L0,121.82381 C0,120.638933 0.435319258,119.629608 1.30597083,118.795805 C2.17662241,117.962004 3.23055325,117.545108 4.46779496,117.545108 L20.2769156,117.545108 C21.5141572,117.545108 22.5680881,117.962004 23.4387396,118.795805 C24.3093913,119.629608 24.7447106,120.638933 24.7447106,121.82381 Z M56.4607657,117.545108 L56.4607657,121.099722 L37.489822,121.099722 L37.489822,127.616516 L52.7490593,127.616516 L52.7490593,131.17113 L37.489822,131.17113 L37.489822,137.687922 L56.4607657,137.687922 L56.4607657,141.242536 L33.7781157,141.242536 L33.7781157,117.545108 L56.4607657,117.545108 Z M65.3567017,141.242537 L65.3567017,117.512195 L69.0684083,117.512195 L69.0684083,137.687923 L90.1014122,137.687923 L90.1014122,141.242537 L65.3567017,141.242537 Z M97.4507993,117.545108 L120.133449,117.545108 L120.133449,121.099722 L101.162506,121.099722 L101.162506,127.616516 L116.421743,127.616516 L116.421743,131.17113 L101.162506,131.17113 L101.162506,141.242536 L97.4507993,141.242536 L97.4507993,117.545108 Z M146.9693,117.545108 L151.36836,117.545108 L151.36836,118.038804 L141.436108,129.393822 L151.36836,140.74884 L151.36836,141.242536 L146.9693,141.242536 L138.136813,131.17113 L131.263283,131.17113 L131.263283,141.242536 L127.551576,141.242536 L127.551576,117.545108 L131.263283,117.545108 L131.263283,127.616516 L138.136813,127.616516 L146.9693,117.545108 Z M182.946944,117.545108 L182.946944,121.099722 L163.976,121.099722 L163.976,127.616516 L179.235238,127.616516 L179.235238,131.17113 L163.976,131.17113 L163.976,137.687922 L182.946944,137.687922 L182.946944,141.242536 L160.264294,141.242536 L160.264294,117.545108 L182.946944,117.545108 Z M212.600934,117.545108 L216.999993,117.545108 L205.589932,132.356 L205.589932,141.242536 L201.878225,141.242536 L201.878225,132.356 L190.468165,117.545108 L194.832857,117.545108 L203.734079,128.340603 L212.600934,117.545108 Z" id="SELFKEY-Copy" fill="#FFFFFF" fill-rule="nonzero"></path>
                </g>
            </g>
        </g>
    </g>
</svg>