<?xml version="1.0" encoding="UTF-8"?>
<svg width="20px" height="20px" viewBox="0 0 20 20" version="1.1" xmlns="http://www.w3.org/2000/svg" xmlns:xlink="http://www.w3.org/1999/xlink">
    <!-- Generator: sketchtool 55.2 (78181) - https://sketchapp.com -->
    <title>B0C20D0A-12B7-4A89-9613-A425E3AC58BD</title>
    <desc>Created with sketchtool.</desc>
    <g id="🌈-UI-Guidelines" stroke="none" stroke-width="1" fill="none" fill-rule="evenodd">
        <g id="5.-Style-Guide---Navigation" transform="translate(-88.000000, -187.000000)" stroke="#00C0D9" stroke-width="1.5">
            <g id="iPhone-X/Bars/Tab-Bar/4-Items" transform="translate(51.000000, 174.000000)">
                <g id="Item-1" transform="translate(22.000000, 13.000000)">
                    <path d="M22,14.75 L17,14.75 C16.3092136,14.75 15.75,15.3092136 15.75,16 L15.75,18 C15.75,18.6907864 16.3092136,19.25 17,19.25 L22,19.25 C22.6907864,19.25 23.25,18.6907864 23.25,18 L23.25,16 C23.25,15.3092136 22.6907864,14.75 22,14.75 Z M33,0.75 L28,0.75 C27.3092136,0.75 26.75,1.30921356 26.75,2 L26.75,4 C26.75,4.69078644 27.3092136,5.25 28,5.25 L33,5.25 C33.6907864,5.25 34.25,4.69078644 34.25,4 L34.25,2 C34.25,1.30921356 33.6907864,0.75 33,0.75 Z M33,8.75 L28,8.75 C27.3092136,8.75 26.75,9.30921356 26.75,10 L26.75,18 C26.75,18.6907864 27.3092136,19.25 28,19.25 L33,19.25 C33.6907864,19.25 34.25,18.6907864 34.25,18 L34.25,10 C34.25,9.30921356 33.6907864,8.75 33,8.75 Z M22,0.75 L17,0.75 C16.3092136,0.75 15.75,1.30921356 15.75,2 L15.75,10 C15.75,10.6907864 16.3092136,11.25 17,11.25 L22,11.25 C22.6907864,11.25 23.25,10.6907864 23.25,10 L23.25,2 C23.25,1.30921356 22.6907864,0.75 22,0.75 Z" id="icon-menu-dashboard"></path>
                </g>
            </g>
        </g>
    </g>
</svg>