<?xml version="1.0" encoding="UTF-8"?>
<svg width="20px" height="20px" viewBox="0 0 20 20" version="1.1" xmlns="http://www.w3.org/2000/svg" xmlns:xlink="http://www.w3.org/1999/xlink">
    <!-- Generator: sketchtool 55.2 (78181) - https://sketchapp.com -->
    <title>D9FA8E65-2D59-4FB5-A316-6424F549216D</title>
    <desc>Created with sketchtool.</desc>
    <g id="🌈-UI-Guidelines" stroke="none" stroke-width="1" fill="none" fill-rule="evenodd">
        <g id="5.-Style-Guide---Navigation" transform="translate(-369.000000, -187.000000)" fill="#93B0C1">
            <g id="iPhone-X/Bars/Tab-Bar/4-Items" transform="translate(51.000000, 174.000000)">
                <g id="Item-4" transform="translate(303.000000, 13.000000)">
                    <path d="M24.9999962,6.36363636 C27.0083036,6.36363636 28.6363585,7.99169182 28.6363585,10 C28.6363585,12.0083082 27.0083036,13.6363636 24.9999962,13.6363636 C22.9916888,13.6363636 21.3636339,12.0083082 21.3636339,10 C21.3636339,7.99169182 22.9916888,6.36363636 24.9999962,6.36363636 Z M24.9999962,12.2727273 C26.2551883,12.2727273 27.2727226,11.2551926 27.2727226,10 C27.2727226,8.74480739 26.2551883,7.72727273 24.9999962,7.72727273 C23.7448041,7.72727273 22.7272698,8.74480739 22.7272698,10 C22.7272698,11.2551926 23.7448041,12.2727273 24.9999962,12.2727273 Z M33.6363566,7.27272727 C33.9988042,7.27272526 34.346341,7.41701747 34.6022033,7.67373284 C34.8580657,7.9304482 35.0012006,8.27846333 34.9999924,8.64090909 L34.9999924,11.3681818 C34.9999924,12.1212974 34.3894718,12.7318182 33.6363566,12.7318182 L33.1818113,12.7318182 C33.0580044,13.1225839 32.9060929,13.5038819 32.727266,13.8727273 L33.0409022,14.1863636 C33.5726355,14.7187592 33.5726355,15.5812408 33.0409022,16.1136364 L31.1136303,18.0409091 C30.5812349,18.5726425 29.7187536,18.5726425 29.1863583,18.0409091 L28.872722,17.7272727 C28.5038704,17.9060851 28.1225735,18.0579963 27.7318134,18.1818182 L27.7318134,18.6363636 C27.7318134,19.3894792 27.1212928,20 26.3681775,20 L23.6409058,20 C22.8877905,20 22.27727,19.3894792 22.27727,18.6363636 L22.27727,18.1818182 C21.8865098,18.0579963 21.505213,17.9060851 21.1363613,17.7272727 L20.8136342,18.0318182 C20.2812388,18.5635516 19.4187575,18.5635516 18.8863622,18.0318182 L16.9590902,16.1045455 C16.427357,15.5721499 16.427357,14.7096683 16.9590902,14.1772727 L17.2727264,13.8636364 C17.0938995,13.494791 16.941988,13.113493 16.8181811,12.7227273 L16.3636358,12.7227273 C15.6105206,12.7227273 15,12.1122065 15,11.3590909 L15,8.63181818 C15,7.87870261 15.6105206,7.26818182 16.3636358,7.26818182 L16.8181811,7.26818182 C16.941988,6.87741613 17.0938995,6.49611811 17.2727264,6.12727273 L16.9590902,5.81363636 C16.427357,5.28124082 16.427357,4.41875918 16.9590902,3.88636364 L18.8863622,1.95909091 C19.4187575,1.42735749 20.2812388,1.42735749 20.8136342,1.95909091 L21.1272704,2.27272727 C21.496122,2.09391487 21.8774189,1.94200373 22.2681791,1.81818182 L22.2681791,1.36363636 C22.2681791,0.610520796 22.8786996,1.81188398e-13 23.6318149,1.81188398e-13 L26.3590866,1.81188398e-13 C27.1122019,1.81188398e-13 27.7227224,0.610520796 27.7227224,1.36363636 L27.7227224,1.81818182 C28.1134826,1.94200373 28.4947795,2.09391487 28.8636311,2.27272727 L29.1863583,1.96363636 C29.7187536,1.43190295 30.5812349,1.43190295 31.1136303,1.96363636 L33.0409022,3.89090909 C33.5726355,4.42330463 33.5726355,5.28578628 33.0409022,5.81818182 L32.727266,6.13181818 C32.9060929,6.50066356 33.0580044,6.88196159 33.1818113,7.27272727 L33.6363566,7.27272727 Z M33.6363566,11.3636364 L33.6363566,8.63636364 L32.1409026,8.63636364 C31.9565956,7.65945425 31.5728497,6.73103641 31.0136303,5.90909091 L32.0772662,4.85909091 L30.1499943,2.93181818 L29.0954492,3.98636364 C28.273504,3.42714397 27.3450865,3.04339793 26.3681775,2.85909091 L26.3681775,1.36363636 L23.6409058,1.36363636 L23.6409058,2.85 C22.6639968,3.03430702 21.7355793,3.41805306 20.9136341,3.97727273 L19.8590891,2.92272727 L17.9318171,4.85 L18.9863621,5.90454545 C18.4271427,6.72649095 18.0433968,7.65490879 17.8590898,8.63181818 L16.3636358,8.63181818 L16.3636358,11.3590909 L17.8499989,11.3590909 C18.0343059,12.3360003 18.4180518,13.2644181 18.9772712,14.0863636 L17.9227262,15.1409091 L19.8499982,17.0681818 L20.9045432,16.0136364 C21.7264262,16.5729713 22.6548685,16.9567276 23.6318149,17.1409091 L23.6318149,18.6363636 L26.3590866,18.6363636 L26.3590866,17.1454545 C27.336033,16.9612731 28.2644753,16.5775168 29.0863583,16.0181818 L30.1409033,17.0727273 L32.0681753,15.1454545 L31.0136303,14.0909091 C31.5728497,13.2689636 31.9565956,12.3405458 32.1409026,11.3636364 L33.6363566,11.3636364 Z" id="icon-menu-settings"></path>
                </g>
            </g>
        </g>
    </g>
</svg>