<?xml version="1.0" encoding="UTF-8"?>
<svg width="20px" height="20px" viewBox="0 0 20 20" version="1.1" xmlns="http://www.w3.org/2000/svg" xmlns:xlink="http://www.w3.org/1999/xlink">
    <!-- Generator: sketchtool 55.2 (78181) - https://sketchapp.com -->
    <title>2271C465-29E4-4DF8-A22C-257698279B02</title>
    <desc>Created with sketchtool.</desc>
    <g id="🌈-UI-Guidelines" stroke="none" stroke-width="1" fill="none" fill-rule="evenodd">
        <g id="5.-Style-Guide---Navigation" transform="translate(-275.000000, -188.000000)" fill="#93A4AF" fill-rule="nonzero">
            <g id="iPhone-X/Bars/Tab-Bar/4-Items" transform="translate(51.000000, 174.000000)">
                <g id="Item-3" transform="translate(209.000000, 14.000000)">
                    <path d="M15,0 L15,7.5 L22.5,7.5 L22.5,0 L15,0 Z M24.1666667,0 L24.1666667,1.66666667 L25.8333333,1.66666667 L25.8333333,0 L24.1666667,0 Z M27.5,0 L27.5,7.5 L35,7.5 L35,0 L27.5,0 Z M16.6666667,1.66666667 L20.8333333,1.66666667 L20.8333333,5.83333333 L16.6666667,5.83333333 L16.6666667,1.66666667 Z M29.1666667,1.66666667 L33.3333333,1.66666667 L33.3333333,5.83333333 L29.1666667,5.83333333 L29.1666667,1.66666667 Z M17.5,2.5 L17.5,5 L20,5 L20,2.5 L17.5,2.5 Z M30,2.5 L30,5 L32.5,5 L32.5,2.5 L30,2.5 Z M24.1666667,3.33333333 L24.1666667,5 L24.1666667,6.66666667 L25.8333333,6.66666667 L25.8333333,5 L25.8333333,3.33333333 L24.1666667,3.33333333 Z M15,8.33333333 L15,10 L16.6666667,10 L16.6666667,8.33333333 L15,8.33333333 Z M16.6666667,10 L16.6666667,11.6666667 L18.3333333,11.6666667 L20,11.6666667 L20,10 L21.6666667,10 L21.6666667,11.6666667 L23.3333333,11.6666667 L25,11.6666667 L25.8333333,11.6666667 L27.5,11.6666667 L28.3333333,11.6666667 L28.3333333,10 L30,10 L30,8.33333333 L28.3333333,8.33333333 L27.5,8.33333333 L25.8333333,8.33333333 L25.8333333,10 L25,10 L25,8.33333333 L23.3333333,8.33333333 L21.6666667,8.33333333 L20,8.33333333 L18.3333333,8.33333333 L18.3333333,10 L16.6666667,10 Z M30,10 L30,11.6666667 L31.6666667,11.6666667 L33.3333333,11.6666667 L35,11.6666667 L35,10 L33.3333333,10 L33.3333333,8.33333333 L31.6666667,8.33333333 L31.6666667,10 L30,10 Z M15,12.5 L15,20 L22.5,20 L22.5,12.5 L15,12.5 Z M25.8333333,13.3333333 L25.8333333,15 L24.1666667,15 L24.1666667,16.6666667 L24.1666667,18.3333333 L25.8333333,18.3333333 L25.8333333,16.6666667 L27.5,16.6666667 L27.5,15 L29.1666667,15 L29.1666667,13.3333333 L27.5,13.3333333 L25.8333333,13.3333333 Z M29.1666667,15 L29.1666667,16.6666667 L27.5,16.6666667 L27.5,18.3333333 L27.5,20 L29.1666667,20 L29.1666667,18.3333333 L30.8333333,18.3333333 L30.8333333,16.6666667 L31.6666667,16.6666667 L31.6666667,18.3333333 L30.8333333,18.3333333 L30.8333333,20 L32.5,20 L32.5,18.3333333 L33.3333333,18.3333333 L33.3333333,16.6666667 L35,16.6666667 L35,15 L35,13.3333333 L33.3333333,13.3333333 L32.5,13.3333333 L31.6666667,13.3333333 L30.8333333,13.3333333 L30.8333333,15 L29.1666667,15 Z M33.3333333,18.3333333 L33.3333333,20 L35,20 L35,18.3333333 L33.3333333,18.3333333 Z M16.6666667,14.1666667 L20.8333333,14.1666667 L20.8333333,18.3333333 L16.6666667,18.3333333 L16.6666667,14.1666667 Z M17.5,15 L17.5,17.5 L20,17.5 L20,15 L17.5,15 Z" id="icon-menu-qr"></path>
                </g>
            </g>
        </g>
    </g>
</svg>