<?xml version="1.0" encoding="UTF-8"?>
<svg width="20px" height="23px" viewBox="0 0 20 23" version="1.1" xmlns="http://www.w3.org/2000/svg" xmlns:xlink="http://www.w3.org/1999/xlink">
    <!-- Generator: sketchtool 55.2 (78181) - https://sketchapp.com -->
    <title>BF0B0F65-86DF-4C00-8588-3D94CFDF2CA0</title>
    <desc>Created with sketchtool.</desc>
    <g id="🌈-UI-Guidelines" stroke="none" stroke-width="1" fill="none" fill-rule="evenodd">
        <g id="5.-Style-Guide---Navigation" transform="translate(-182.000000, -187.000000)" fill="#93A4AF">
            <g id="iPhone-X/Bars/Tab-Bar/4-Items" transform="translate(51.000000, 174.000000)">
                <g id="Item-2" transform="translate(116.000000, 13.000000)">
                    <path d="M34.8486486,9.94594595 C34.8451166,10.3928215 34.8108011,10.8389227 34.7459459,11.2810811 C34.8129793,11.7338788 34.8473024,12.1909179 34.8486486,12.6486486 C34.8486486,18.02223 30.4925003,22.3783784 25.1189189,22.3783784 C19.7453376,22.3783784 15.3891892,18.02223 15.3891892,12.6486486 C15.3905354,12.1909179 15.4248585,11.7338788 15.4918919,11.2810811 C14.9631291,7.66586509 16.5043019,4.05915348 19.4823632,1.94242769 C22.4604244,-0.174298104 26.3733185,-0.444190551 29.6137975,1.24361052 C32.8542766,2.93141158 34.8760454,6.29236877 34.8486486,9.94594595 Z M25.1189189,1.83783784 C20.6409345,1.83783784 17.0108108,5.46796149 17.0108108,9.94594595 C17.0108108,14.4239304 20.6409345,18.0540541 25.1189189,18.0540541 C29.5969034,18.0540541 33.227027,14.4239304 33.227027,9.94594595 C33.227027,5.46796149 29.5969034,1.83783784 25.1189189,1.83783784 Z M25.1189189,20.7567568 C28.0506389,20.7606232 30.7560986,19.1815771 32.1945946,16.627027 C30.3642137,18.5704293 27.8129074,19.6722437 25.1432432,19.6722437 C22.4735791,19.6722437 19.9222728,18.5704293 18.0918919,16.627027 C19.5218283,19.1664457 22.2046131,20.7430976 25.1189189,20.7567568 Z M23.8162162,9.28648649 L23.8216216,9.3027027 C23.5141333,9.62959545 22.9998659,9.64532593 22.6729731,9.33783771 C22.3460803,9.03034949 22.3303497,8.51608207 22.6378378,8.18918919 L24.8,5.89189189 C25.0260587,5.65263638 25.3743293,5.57378941 25.6813955,5.69234777 C25.9884617,5.81090614 26.1933807,6.10333989 26.2,6.43243243 L26.2,12.6486486 C26.2,13.0964471 25.8369876,13.4594595 25.3891892,13.4594595 C24.9413907,13.4594595 24.5783784,13.0964471 24.5783784,12.6486486 L24.5783784,8.47567568 L23.8162162,9.28648649 Z" id="icon-menu-tokens"></path>
                </g>
            </g>
        </g>
    </g>
</svg>