<?xml version="1.0" encoding="UTF-8"?>
<svg width="44px" height="42px" viewBox="0 0 44 42" version="1.1" xmlns="http://www.w3.org/2000/svg" xmlns:xlink="http://www.w3.org/1999/xlink">
    <!-- Generator: sketchtool 64 (101010) - https://sketch.com -->
    <title>EEDD5607-842F-4546-A962-CA0B6BBEBA49</title>
    <desc>Created with sketchtool.</desc>
    <g id="💹-Marketplace" stroke="none" stroke-width="1" fill="none" fill-rule="evenodd">
        <g id="500---SelfKey-Marketplace" transform="translate(-35.000000, -282.000000)" fill="#00C0D9" fill-rule="nonzero">
            <g id="Marketplaces" transform="translate(20.000000, 91.000000)">
                <g id="Marketplace-2" transform="translate(0.000000, 176.000000)">
                    <path d="M49.6717312,15 C45.6374636,15 42.3423772,18.3500507 42.3423772,22.4516129 C42.3423772,22.4621976 42.3423772,22.4754283 42.3423772,22.4860129 C37.8838605,22.8353073 34.3467183,26.6352065 34.3467183,31.2580645 C34.3467183,36.1084928 38.237835,40.0645161 43.0086821,40.0645161 C47.7795292,40.0645161 51.670646,36.1084928 51.670646,31.2580645 C51.670646,30.7076613 51.6133857,30.1731354 51.5170834,29.6518395 C54.6664155,28.81565 57.0010853,25.9048637 57.0010853,22.4516129 C57.0010853,18.3500507 53.7059996,15 49.6717312,15 Z M49.6717312,16.3548387 C52.9850364,16.3548387 55.6684754,19.0830395 55.6684754,22.4516129 C55.6684754,25.2909525 53.7528488,27.6672129 51.1709173,28.3472782 C50.9574918,27.7254283 50.6737912,27.137979 50.3354336,26.5902218 C50.3354336,26.5637604 50.3380362,26.5399444 50.3380362,26.516129 C50.3380362,26.2012347 50.1246107,25.9286798 49.8252939,25.857233 C48.8492611,24.5870717 47.5426792,23.5947581 46.0356847,23.0205395 C46.2256855,22.8961694 46.3402067,22.6818298 46.3402067,22.4516129 C46.3402067,22.0785032 46.0408899,21.7741935 45.6739018,21.7741935 C45.3069137,21.7741935 45.0075969,22.0785032 45.0075969,22.4516129 C45.0075969,22.541583 45.0258163,22.6315524 45.0596519,22.7162298 C44.6119783,22.6024444 44.1486885,22.5230596 43.674987,22.4860129 C43.674987,22.4754283 43.674987,22.4621976 43.674987,22.4516129 C43.674987,19.0830395 46.3584261,16.3548387 49.6717312,16.3548387 Z M49.6717312,17.7096774 C49.3047432,17.7096774 49.0054263,18.0139871 49.0054263,18.3870968 C49.0054263,18.7602065 49.3047432,19.0645161 49.6717312,19.0645161 C50.0387193,19.0645161 50.3380362,18.7602065 50.3380362,18.3870968 C50.3380362,18.0139871 50.0387193,17.7096774 49.6717312,17.7096774 Z M46.852949,18.900454 C46.6733591,18.8978073 46.5015777,18.969254 46.3740423,19.0989162 C46.113767,19.3635331 46.113767,19.7922129 46.3740423,20.0568298 C46.6343177,20.3214467 47.0559641,20.3214467 47.3162394,20.0568298 C47.5765148,19.7922129 47.5765148,19.3635331 47.3162394,19.0989162 C47.1939099,18.9745467 47.0273336,18.9031 46.852949,18.900454 Z M52.508733,18.9031 C52.3291425,18.8978073 52.1547585,18.969254 52.0272231,19.0989162 C51.9022909,19.2259323 51.832017,19.3979338 51.832017,19.5778733 C51.832017,19.7578128 51.9022909,19.9298137 52.0272231,20.0594758 C52.2874984,20.3214467 52.7091448,20.3214467 52.9694202,20.0568298 C53.2296955,19.7922129 53.2296955,19.3635331 52.9694202,19.0989162 C52.8470906,18.9745467 52.6805144,18.9031 52.508733,18.9031 Z M53.6695607,21.7741935 C53.3025726,21.7741935 53.0032558,22.0785032 53.0032558,22.4516129 C53.0032558,22.8247226 53.3025726,23.1290323 53.6695607,23.1290323 C54.0365488,23.1290323 54.3358656,22.8247226 54.3358656,22.4516129 C54.3358656,22.0785032 54.0365488,21.7741935 53.6695607,21.7741935 Z M43.0086821,23.8064516 C47.0559641,23.8064516 50.3380362,27.143271 50.3380362,31.2580645 C50.3380362,35.372858 47.0559641,38.7096774 43.0086821,38.7096774 C38.9614002,38.7096774 35.6793281,35.372858 35.6793281,31.2580645 C35.6793281,27.143271 38.9614002,23.8064516 43.0086821,23.8064516 Z M52.5061297,24.6505798 C52.3265399,24.6452871 52.1521552,24.7167339 52.0246205,24.846396 C51.7669477,25.1136596 51.7669477,25.5423387 52.0272231,25.8069556 C52.2874984,26.0689266 52.7091448,26.0689266 52.9694202,25.8069556 C53.2296955,25.5423387 53.2296955,25.1110129 52.9694202,24.846396 C52.8470906,24.7220265 52.6805144,24.6505798 52.5061297,24.6505798 Z M43.0086821,25.1612903 C42.6416941,25.1612903 42.3423772,25.4656 42.3423772,25.8387097 C42.3423772,26.2118194 42.6416941,26.516129 43.0086821,26.516129 C43.3756702,26.516129 43.674987,26.2118194 43.674987,25.8387097 C43.674987,25.4656 43.3756702,25.1612903 43.0086821,25.1612903 Z M40.3252431,25.8889871 C40.2159277,25.8889871 40.1066118,25.9207411 40.01031,25.9763105 C39.6901712,26.1641887 39.5808559,26.5796371 39.7656515,26.9024701 C39.9504465,27.2253024 40.3564761,27.3390879 40.6766149,27.1512097 C40.827575,27.0612403 40.9394929,26.9130548 40.9863428,26.7384073 C41.033192,26.5664064 41.0097674,26.3811742 40.9186709,26.2250507 C40.7989445,26.0107105 40.5699022,25.8810484 40.3252431,25.8889871 Z M45.6426687,25.8889871 C45.416229,25.8995717 45.210612,26.0265879 45.0960908,26.2276967 C45.0075969,26.3811742 44.9841723,26.5664064 45.0284189,26.7410533 C45.0752688,26.9157008 45.1871867,27.0638863 45.3407493,27.1512097 C45.6582856,27.3390879 46.0669177,27.2279484 46.2491102,26.9051161 C46.4339058,26.5796371 46.3245905,26.1668347 46.0070542,25.9789565 C45.8951357,25.9128024 45.7702035,25.8836944 45.6426687,25.8889871 Z M47.6077478,27.8709677 C47.4958293,27.8736137 47.386514,27.9053678 47.2902116,27.9609378 C47.1366496,28.0509073 47.024731,28.1990927 46.9804844,28.3737403 C46.9336345,28.5457411 46.9570591,28.7309726 47.0481557,28.8870968 C47.2303487,29.2099298 47.6389809,29.3210685 47.9565165,29.1331904 C48.2740528,28.9479588 48.3859713,28.5325104 48.2011757,28.2096774 C48.0788461,27.9953379 47.8524063,27.8656757 47.6077478,27.8709677 Z M38.3601646,27.8709677 C38.1337249,27.8841984 37.9281072,28.0112145 37.813586,28.2096774 C37.7250927,28.3658016 37.7016675,28.5510331 37.7485174,28.7230346 C37.792764,28.8976815 37.9046826,29.0458669 38.0582452,29.135837 C38.2118072,29.2258065 38.3940002,29.2496218 38.5631791,29.2046371 C38.7349611,29.1570064 38.8807153,29.0432209 38.9692086,28.8870968 C39.1540043,28.5642645 39.0420857,28.1488154 38.7245501,27.9635838 C38.6152341,27.8974298 38.4876994,27.8656757 38.3601646,27.8709677 Z M37.6782429,30.5806452 C37.3112548,30.5806452 37.0119379,30.8849548 37.0119379,31.2580645 C37.0119379,31.6311742 37.3112548,31.9354839 37.6782429,31.9354839 C38.0452309,31.9354839 38.3445478,31.6311742 38.3445478,31.2580645 C38.3445478,30.8849548 38.0452309,30.5806452 37.6782429,30.5806452 Z M48.3391214,30.5806452 C47.9721333,30.5806452 47.6728165,30.8849548 47.6728165,31.2580645 C47.6728165,31.6311742 47.9721333,31.9354839 48.3391214,31.9354839 C48.7061095,31.9354839 49.0054263,31.6311742 49.0054263,31.2580645 C49.0054263,30.8849548 48.7061095,30.5806452 48.3391214,30.5806452 Z M38.3757808,33.2903226 C38.2638622,33.2929686 38.1545469,33.3247226 38.0582452,33.3802927 C37.9046826,33.4702621 37.792764,33.6184476 37.7485174,33.7930951 C37.7016675,33.9650959 37.7250927,34.1503275 37.813586,34.3064516 C37.9983817,34.6292846 38.4070138,34.7404234 38.7245501,34.5525452 C39.0420857,34.3673137 39.1540043,33.9518653 38.9692086,33.6290323 C38.846879,33.4146927 38.62044,33.2850306 38.3757808,33.2903226 Z M47.592131,33.2929686 C47.3656919,33.3035533 47.1600742,33.4305694 47.0481557,33.6290323 C46.86336,33.9545113 46.972676,34.3673137 47.2902116,34.5551919 C47.6103504,34.7430694 48.01638,34.6319306 48.2011757,34.3064516 C48.3859713,33.9836193 48.2766553,33.5708169 47.9565165,33.3829387 C47.8472012,33.3167846 47.7196664,33.2876766 47.592131,33.2929686 Z M45.6556823,35.2723033 C45.546367,35.2749499 45.437051,35.306704 45.3407493,35.3649194 C45.1871867,35.4522428 45.0752688,35.6004283 45.0284189,35.7750758 C44.9841723,35.9497226 45.0075969,36.1349548 45.0960908,36.2884323 C45.2808858,36.6139113 45.6869154,36.7250507 46.0070542,36.5371725 C46.3245905,36.3492944 46.4339058,35.9364919 46.2491102,35.6110129 C46.1293838,35.3966734 45.9003415,35.2670113 45.6556823,35.2723033 Z M40.3122295,35.2749499 C40.0831871,35.2855346 39.8775694,35.4125507 39.7656515,35.6136596 C39.5808559,35.9364919 39.6901712,36.3519404 40.01031,36.5398185 C40.1612701,36.6297886 40.3434625,36.653604 40.5152446,36.6059726 C40.687026,36.5609879 40.8327802,36.4472025 40.9186709,36.291079 C41.0097674,36.1349548 41.033192,35.9497226 40.9863428,35.7777218 C40.9394929,35.6030749 40.827575,35.4548895 40.6766149,35.3649194 C40.5646964,35.2987653 40.4371616,35.2696573 40.3122295,35.2749499 Z M25.6847545,36 C25.0314631,36 24.4068023,36.1270161 23.8315939,36.3466484 C23.8107719,36.3492944 23.8367998,36.3360637 23.7613194,36.359879 L23.7795388,36.354587 C22.3376137,36.7991435 15.5131935,38.7334928 15.5131935,38.7334928 C15.2737402,38.7917088 15.086342,38.9769404 15.0238759,39.2150959 C14.9588072,39.4558975 15.0290817,39.7125758 15.206069,39.8845766 C15.380453,40.0539315 15.6355231,40.1147935 15.867168,40.0407008 C15.867168,40.0407008 22.5406282,38.1513355 24.1204997,37.6644404 C24.167349,37.6565024 24.2141989,37.6459177 24.2584455,37.6273943 C24.7061191,37.4527468 25.1824232,37.3548387 25.6847545,37.3548387 C26.416128,37.3548387 27.0954472,37.5559476 27.6862718,37.9052419 C27.7096971,37.9211193 27.7357243,37.931704 27.7591489,37.9422886 C27.7643547,37.9449346 27.7695599,37.9475806 27.7747657,37.9502266 C31.9730071,39.966608 40.5022303,44.3063258 40.5230523,44.3195565 L40.5282582,44.3195565 C40.4866141,44.2983871 40.4918193,44.3010331 40.5725048,44.3539565 C40.5881217,44.3645412 40.6037379,44.3751258 40.6167515,44.3830645 C41.2492207,44.7297129 41.6760723,45.3859629 41.6760723,46.1612903 C41.6760723,46.5688007 41.5589486,46.9392645 41.3559335,47.2594508 C40.7703141,48.1856097 39.6355135,48.3814266 38.5761927,47.8627774 C38.5631791,47.8574847 38.5501655,47.8521927 38.5397544,47.844254 L38.0842724,47.6563758 C37.8630385,47.5558217 37.6027632,47.5875758 37.4101591,47.7384073 C37.2175556,47.8865927 37.1186507,48.1326863 37.1550896,48.3761339 C37.1889252,48.6195815 37.3528988,48.825983 37.5819411,48.9133065 L38.0348199,49.1011846 L37.9983817,49.0826613 C39.3388,49.7389113 40.9759318,49.5907258 42.0222384,48.5534274 L42.7484068,49.0588459 C42.9332025,49.1885081 43.1726558,49.2123234 43.3808761,49.125 L54.312441,44.53125 L54.0339462,43.9676161 C54.192714,44.2878024 54.5675105,44.4280492 54.890252,44.2878024 C55.1297053,44.1846016 55.3899806,44.1290323 55.6684754,44.1290323 C56.7798514,44.1290323 57.6673902,45.0313758 57.6673902,46.1612903 C57.6673902,46.9339718 57.2431412,47.5875758 56.6184803,47.9368701 C56.3165609,48.103579 56.1890262,48.4819807 56.3321778,48.8048137 L56.0823134,48.2332411 L42.9462161,55.322329 C42.9670381,55.3117443 42.9488186,55.3196823 42.9175856,55.330267 C42.8863526,55.3408516 42.8551195,55.3514363 42.8264897,55.3673137 C42.4673094,55.5419605 42.0847045,55.6451613 41.6760723,55.6451613 C41.2830564,55.6451613 40.9134657,55.5525452 40.5699022,55.391129 C40.5542854,55.385837 40.5386692,55.3778984 40.5230523,55.3726057 C40.4736005,55.354083 40.4657921,55.3487903 40.4996277,55.3673137 L23.9461151,48.2464718 C23.7951557,48.1829637 23.6285795,48.175025 23.4750168,48.2279484 L15.4793579,50.9376258 C15.1305886,51.056704 14.9405878,51.4403984 15.0577115,51.7949847 C15.1748359,52.1495717 15.552235,52.3427419 15.9010037,52.2236645 L23.6572093,49.5933718 L39.9634608,56.6057209 C40.0649677,56.6533516 40.0857897,56.6533516 40.0623651,56.642767 C40.5490802,56.8650452 41.0956581,57 41.6760723,57 C42.3033358,57 42.8889558,56.8412298 43.4043007,56.5871976 C43.4433421,56.5739669 43.4797804,56.5660282 43.5292328,56.5395669 C43.5370413,56.5369202 43.5448497,56.5316282 43.5500549,56.5289822 L57.2535522,49.1355847 C57.3654708,49.0747226 57.4565673,48.9847532 57.5190334,48.8736137 C58.3779417,48.2649951 59,47.3097282 59,46.1612903 C59,44.2983871 57.500814,42.7741935 55.6684754,42.7741935 C55.3040899,42.7741935 54.9657323,42.8747483 54.637785,42.9858871 L54.6351824,42.9858871 C54.5466885,42.9858871 54.4581952,43.0017645 54.3775097,43.0388105 L43.2038888,47.7331153 L42.6547077,47.3547129 C42.8082703,46.9683718 43.0086821,46.6005548 43.0086821,46.1612903 C43.0086821,44.8752524 42.2877196,43.7585685 41.2492207,43.189642 L41.2960706,43.21875 C41.3194952,43.2319807 41.2752486,43.189642 41.1555216,43.1234879 C41.1503164,43.1208419 41.1451106,43.1181959 41.1373022,43.1155492 C41.1373022,43.1155492 32.5664349,38.7493701 28.3291521,36.7171121 C28.3239469,36.7144661 28.3187411,36.7118194 28.3161385,36.7091734 C28.2406588,36.6774194 28.2354529,36.6774194 28.2692886,36.69065 C27.5040794,36.2566783 26.6243483,36 25.6847545,36 Z M43.0086821,36 C42.6416941,36 42.3423772,36.3043096 42.3423772,36.6774194 C42.3423772,37.0505291 42.6416941,37.3548387 43.0086821,37.3548387 C43.3756702,37.3548387 43.674987,37.0505291 43.674987,36.6774194 C43.674987,36.3043096 43.3756702,36 43.0086821,36 Z M29.6825839,44.8064516 C29.3155958,44.8064516 29.016279,45.1107613 29.016279,45.483871 C29.016279,45.8569807 29.3155958,46.1612903 29.6825839,46.1612903 C30.049572,46.1612903 30.3488888,45.8569807 30.3488888,45.483871 C30.3488888,45.1107613 30.049572,44.8064516 29.6825839,44.8064516 Z M31.6814987,45.483871 C31.3145106,45.483871 31.0151937,45.7881806 31.0151937,46.1612903 C31.0151937,46.5344 31.3145106,46.8387097 31.6814987,46.8387097 C32.0484867,46.8387097 32.3478036,46.5344 32.3478036,46.1612903 C32.3478036,45.7881806 32.0484867,45.483871 31.6814987,45.483871 Z M33.6804134,46.1612903 C33.3134253,46.1612903 33.0141085,46.4656 33.0141085,46.8387097 C33.0141085,47.2118194 33.3134253,47.516129 33.6804134,47.516129 C34.0474015,47.516129 34.3467183,47.2118194 34.3467183,46.8387097 C34.3467183,46.4656 34.0474015,46.1612903 33.6804134,46.1612903 Z M35.6793281,46.8387097 C35.31234,46.8387097 35.0130232,47.1430193 35.0130232,47.516129 C35.0130232,47.8892387 35.31234,48.1935484 35.6793281,48.1935484 C36.0463162,48.1935484 36.345633,47.8892387 36.345633,47.516129 C36.345633,47.1430193 36.0463162,46.8387097 35.6793281,46.8387097 Z" id="icon-marketplace-loans"></path>
                </g>
            </g>
        </g>
    </g>
</svg>