<svg width="14" height="16" viewBox="0 0 14 16" fill="none" xmlns="http://www.w3.org/2000/svg">
<path id="icon-shield-check" fill-rule="evenodd" clip-rule="evenodd" d="M6.75556 0C12.1209 0 13.2693 1.39733 13.4791 2.22933C13.5004 2.31421 13.5111 2.40139 13.5111 2.48889V7.21778C13.5055 10.166 11.9133 12.883 9.344 14.3289L7.27822 15.4916C6.95366 15.674 6.55745 15.674 6.23289 15.4916L4.16711 14.3289C1.59778 12.883 0.00564207 10.166 0 7.21778V2.48889C0 2.24711 0.096 1.42933 1.30133 0.824889C2.39289 0.277333 4.22756 0 6.75556 0ZM8.82133 13.4044C11.0596 12.1446 12.4446 9.77562 12.4444 7.20711V2.48889C12.4444 2.48889 12.0889 1.06667 6.75556 1.06667C1.06667 1.06667 1.06667 2.48889 1.06667 2.48889V7.21778C1.06652 9.78629 2.45147 12.1553 4.68978 13.4151L6.75556 14.5778L8.82133 13.4044ZM6.4 8.49067L9.93422 4.95644C10.1444 4.76063 10.4718 4.76641 10.6749 4.96951C10.878 5.17262 10.8838 5.50008 10.688 5.71022L6.77689 9.62133C6.56866 9.8293 6.23134 9.8293 6.02311 9.62133L3.53422 7.13244C3.33841 6.9223 3.34419 6.59484 3.54729 6.39174C3.75039 6.18863 4.07786 6.18286 4.288 6.37867L6.4 8.49067Z" fill="currentColor"/>
</svg>
