<svg width="69" height="69" viewBox="0 0 69 69" fill="none" xmlns="http://www.w3.org/2000/svg">
<g id="icon-touch-id">
<path id="Path" d="M4.71387 19.2718C1.38587 25.7705 0.152617 33.399 1.70812 41.1128" stroke="#2DA1F8" stroke-width="2" stroke-linecap="round"/>
<path id="Path_2" d="M49.2186 4.45875C42.8329 1.32425 35.4009 0.193748 27.8884 1.7085C19.3544 3.429 12.2401 8.25525 7.48389 14.7727" stroke="#2DA1F8" stroke-width="2" stroke-linecap="round"/>
<path id="Path_3" d="M68 35.1737C67.1773 18.3245 60.8599 12.8692 54.0455 7.35553C53.9379 7.26846 53.8279 7.19716 53.7197 7.12125" stroke="#2DA1F8" stroke-width="2" stroke-linecap="round"/>
<path id="Path_4" d="M25.8635 66.8225C33.3578 58.2928 36.9258 46.4875 34.5083 34.499" stroke="#2DA1F8" stroke-width="2" stroke-linecap="round"/>
<path id="Path_5" d="M28.7941 54.0845C27.1553 58.284 24.6833 62.1172 21.5391 65.341" stroke="#2DA1F8" stroke-width="2" stroke-linecap="round"/>
<path id="Path_6" d="M30.5469 67.724C37.8096 58.4302 41.1224 46.1408 38.6081 33.6728L38.6211 33.6685C38.1621 31.3925 35.9454 29.9195 33.6694 30.3785C31.3936 30.8375 29.9209 33.0543 30.3796 35.3305L30.4094 35.3255C31.3459 39.9708 31.2719 44.5855 30.3384 48.9417" stroke="#2DA1F8" stroke-width="2" stroke-linecap="round"/>
<path id="Path_7" d="M26.6274 38.036C27.9387 47.7112 24.3237 57.0565 17.5869 63.3592" stroke="#2DA1F8" stroke-width="2" stroke-linecap="round"/>
<path id="Path_8" d="M43.6235 41.8585C43.6152 38.886 43.3167 35.871 42.707 32.8462L42.7162 32.8427C41.8015 28.3047 37.3812 25.3675 32.8432 26.2827C29.4535 26.9662 26.9567 29.6057 26.2925 32.7895" stroke="#2DA1F8" stroke-width="2" stroke-linecap="round"/>
<path id="Path_9" d="M35.5684 67.937C39.7544 61.8197 42.4699 54.7022 43.3296 47.1625" stroke="#2DA1F8" stroke-width="2" stroke-linecap="round"/>
<path id="Path_10" d="M35.4826 21.9745C34.3504 21.8862 33.1866 21.9512 32.0179 22.187C25.2176 23.5582 20.8166 30.1817 22.1879 36.9825L22.2114 36.9785C24.0659 46.1765 20.6381 55.213 14.0166 60.9475" stroke="#2DA1F8" stroke-width="2" stroke-linecap="round"/>
<path id="Path_11" d="M40.9021 67.331C46.9291 57.0565 49.3461 44.6143 46.8063 32.0195L46.8123 32.017C46.0566 28.27 43.7063 25.2513 40.6106 23.5253" stroke="#2DA1F8" stroke-width="2" stroke-linecap="round"/>
<path id="Path_12" d="M17.1143 49.498C15.8073 52.8633 13.6451 55.8535 10.8406 58.1508" stroke="#2DA1F8" stroke-width="2" stroke-linecap="round"/>
<path id="Path_13" d="M51.2711 50.765C52.3116 44.4485 52.2461 37.8407 50.9059 31.1932L50.9084 31.1915C49.0809 22.129 40.2541 16.2642 31.1921 18.0915C22.1296 19.919 16.2646 28.746 18.0921 37.8087L18.1116 37.8047C18.5456 39.9572 18.6326 42.0992 18.4109 44.1722" stroke="#2DA1F8" stroke-width="2" stroke-linecap="round"/>
<path id="Path_14" d="M46.5015 65.7273C48.0185 62.6133 49.2432 59.3473 50.147 55.972" stroke="#2DA1F8" stroke-width="2" stroke-linecap="round"/>
<path id="Path_15" d="M51.4165 22.1895C53.1373 24.5512 54.3883 27.3135 55.004 30.3657L55.0053 30.3667C57.279 41.6427 56.146 52.814 52.3193 62.8182" stroke="#2DA1F8" stroke-width="2" stroke-linecap="round"/>
<path id="Path_16" d="M25.7676 15.488C27.2076 14.828 28.7458 14.3222 30.3658 13.9957C36.7681 12.705 43.0763 14.4862 47.7628 18.3245" stroke="#2DA1F8" stroke-width="2" stroke-linecap="round"/>
<path id="Path_17" d="M8.06885 55.0125C12.7943 51.2163 15.2928 44.983 14.0116 38.6315L13.9958 38.635C12.4043 30.7433 15.4808 22.9945 21.3246 18.249" stroke="#2DA1F8" stroke-width="2" stroke-linecap="round"/>
<path id="Path_18" d="M9.42102 35.494C9.47477 36.8065 9.63202 38.132 9.90002 39.4607L9.91277 39.4575C10.8508 44.1092 9.08902 48.6777 5.70752 51.5432" stroke="#2DA1F8" stroke-width="2" stroke-linecap="round"/>
<path id="Path_19" d="M59.6726 32.789C59.5121 31.7075 59.3228 30.6245 59.1046 29.5405L59.0996 29.5403C56.3601 15.9533 43.1266 7.16075 29.5401 9.9C19.0988 12.0055 11.4883 20.3088 9.76807 30.2073" stroke="#2DA1F8" stroke-width="2" stroke-linecap="round"/>
<path id="Path_20" d="M58.2458 58.0645C59.9523 51.6638 60.6618 44.9235 60.2286 38.0573" stroke="#2DA1F8" stroke-width="2" stroke-linecap="round"/>
<path id="Path_21" d="M38.4221 5.48275C35.2741 5.0575 32.0034 5.14125 28.7146 5.8045C12.8654 9 2.6081 24.4375 5.80385 40.2865L5.8136 40.284C6.36835 43.034 5.50735 45.7398 3.73535 47.6515" stroke="#2DA1F8" stroke-width="2" stroke-linecap="round"/>
<path id="Path_22" d="M64.0261 50.224C64.8958 43.2377 64.6721 35.995 63.2038 28.7138L63.1956 28.7143C61.0223 17.9363 53.1878 9.74475 43.4133 6.611" stroke="#2DA1F8" stroke-width="2" stroke-linecap="round"/>
</g>
</svg>
