<svg width="58" height="66" viewBox="0 0 58 66" fill="none" xmlns="http://www.w3.org/2000/svg">
<path fill-rule="evenodd" clip-rule="evenodd" d="M6.6 20.9C6.6 9.3753 15.9753 0 27.5 0H29.7C41.2247 0 50.6 9.3753 50.6 20.9V26.4H53.9C55.7194 26.4 57.2 27.8806 57.2 29.7V62.7C57.2 64.5194 55.7194 66 53.9 66H3.3C1.4806 66 0 64.5194 0 62.7V29.7C0 27.8806 1.4806 26.4 3.3 26.4H6.6V20.9ZM29.7 2.2H27.5C27.225 2.2 26.9555 2.21852 26.6855 2.23707L26.6855 2.23707L26.6854 2.23708L26.6853 2.23708L26.6852 2.23708L26.6852 2.23709L26.6851 2.23709L26.685 2.2371L26.685 2.2371L26.6849 2.23711L26.6848 2.23711C26.59 2.24363 26.4952 2.25014 26.4 2.25586V6.65586C26.7641 6.62726 27.1282 6.6 27.5 6.6H29.7C30.0718 6.6 30.4359 6.62726 30.8 6.65586V2.25586C30.7046 2.25013 30.6095 2.2436 30.5145 2.23707C30.2445 2.21852 29.975 2.2 29.7 2.2ZM24.2 2.50938V6.99961C17.9036 8.49561 13.2 14.1526 13.2 20.9V26.4H8.8V20.9C8.8 11.7161 15.4594 4.07468 24.2 2.50938ZM48.4 20.9C48.4 11.7161 41.7406 4.07468 33 2.50938V6.99961C39.2964 8.49561 44 14.1526 44 20.9V26.4H48.4V20.9ZM27.5 8.8H29.7C36.3715 8.8 41.8 14.2285 41.8 20.9V26.4H15.4V20.9C15.4 14.2285 20.8285 8.8 27.5 8.8ZM6.6 28.6H3.3C2.6939 28.6 2.2 29.0928 2.2 29.7V62.7C2.2 63.3072 2.6939 63.8 3.3 63.8H53.9C54.5061 63.8 55 63.3072 55 62.7V29.7C55 29.0928 54.5061 28.6 53.9 28.6H50.6H44H13.2H6.6ZM39.5119 34.1021C39.0841 34.1354 38.7002 34.4197 38.5559 34.852C38.3634 35.4284 38.6756 36.0506 39.252 36.242L41.8 37.0928V42.9H40.7C40.0928 42.9 39.6 43.3917 39.6 44C39.6 44.6083 40.0928 45.1 40.7 45.1H41.8V50.9072L39.252 51.758C38.6756 51.9494 38.3655 52.5705 38.558 53.148C38.7109 53.6078 39.1391 53.9 39.6 53.9C39.7144 53.9 39.8325 53.8805 39.948 53.842L42.9 52.8602L45.852 53.8441C45.9675 53.8815 46.0856 53.9 46.2 53.9C46.6609 53.9 47.0901 53.6089 47.2441 53.148C47.4366 52.5716 47.1244 51.9473 46.548 51.7559L44 50.9072V45.1H45.1C45.7072 45.1 46.2 44.6083 46.2 44C46.2 43.3917 45.7072 42.9 45.1 42.9H44V37.0928L46.548 36.2441C47.1244 36.0527 47.4345 35.4295 47.242 34.852C47.0506 34.2767 46.4305 33.9644 45.852 34.158L42.9 35.1398L39.948 34.1559C39.8031 34.1075 39.6545 34.0911 39.5119 34.1021ZM11 44C11 42.785 11.985 41.8 13.2 41.8C14.415 41.8 15.4 42.785 15.4 44C15.4 45.215 14.415 46.2 13.2 46.2C11.985 46.2 11 45.215 11 44ZM23.1 41.8C21.885 41.8 20.9 42.785 20.9 44C20.9 45.215 21.885 46.2 23.1 46.2C24.315 46.2 25.3 45.215 25.3 44C25.3 42.785 24.315 41.8 23.1 41.8ZM30.8 44C30.8 42.785 31.785 41.8 33 41.8C34.215 41.8 35.2 42.785 35.2 44C35.2 45.215 34.215 46.2 33 46.2C31.785 46.2 30.8 45.215 30.8 44ZM5.5 59.4C4.8928 59.4 4.4 59.8917 4.4 60.5C4.4 61.1083 4.8928 61.6 5.5 61.6H42.9C43.5072 61.6 44 61.1083 44 60.5C44 59.8917 43.5072 59.4 42.9 59.4H5.5ZM46.2 60.5C46.2 59.8917 46.6928 59.4 47.3 59.4H51.7C52.3072 59.4 52.8 59.8917 52.8 60.5C52.8 61.1083 52.3072 61.6 51.7 61.6H47.3C46.6928 61.6 46.2 61.1083 46.2 60.5Z" fill="url(#paint0_linear_0_1741)"/>
<defs>
<linearGradient id="paint0_linear_0_1741" x1="0" y1="0" x2="69.9536" y2="18.97" gradientUnits="userSpaceOnUse">
<stop stop-color="#00E0FF"/>
<stop offset="1" stop-color="#2DA1F8"/>
</linearGradient>
</defs>
</svg>
