<svg width="16" height="22" viewBox="0 0 16 22" fill="none" xmlns="http://www.w3.org/2000/svg">
<path id="icon-trezor" fill-rule="evenodd" clip-rule="evenodd" d="M7.58306 0C4.56506 0 2.12265 2.44241 2.12265 5.46041V7.50692C1.06285 7.69878 0 7.9546 0 8.28654V18.9668C0 18.9668 0 19.2622 0.331949 19.4023C1.53488 19.8895 6.26744 21.5645 7.35465 21.9482C7.49474 22 7.53433 22 7.57087 22C7.62265 22 7.64701 22 7.7871 21.9482C8.87431 21.5645 13.619 19.8895 14.822 19.4023C15.1296 19.2744 15.1417 18.979 15.1417 18.979V8.28654C15.1417 7.9546 14.0941 7.6866 13.0313 7.50692V5.46041C13.0465 2.44241 10.5889 0 7.58306 0ZM7.58306 2.60991C9.36157 2.60991 10.4366 3.68494 10.4366 5.46346V7.24197C8.44186 7.10188 6.73948 7.10188 4.73256 7.24197V5.46346C4.73256 3.68189 5.80759 2.60991 7.58306 2.60991ZM12.1359 10.397C12.1359 10.0529 10.0529 9.86102 7.57088 9.86102C5.08887 9.86102 3.00581 10.0407 3.03018 10.3848V17.0482C3.03018 17.1487 3.0454 17.1609 3.13372 17.2004C3.22204 17.24 7.36683 18.7353 7.36683 18.7353C7.36683 18.7353 7.53129 18.7993 7.58306 18.7993C7.63178 18.7993 7.79928 18.7475 7.79928 18.7475C7.79928 18.7475 11.9441 17.2522 12.0324 17.2126C12.1238 17.1761 12.1359 17.1639 12.1359 17.0604V10.397Z" fill="#2DA1F8"/>
</svg>
