<svg width="20" height="20" viewBox="0 0 20 20" fill="none" xmlns="http://www.w3.org/2000/svg">
<path fill-rule="evenodd" clip-rule="evenodd" d="M0 0V7.5H7.5V0H0ZM9.16667 0V1.66667H10.8333V0H9.16667ZM12.5 7.5V0H20V7.5H12.5ZM1.66667 1.66667H5.83333V5.83333H1.66667V1.66667ZM18.3333 1.66667H14.1667V5.83333H18.3333V1.66667ZM2.5 2.5V5H5V2.5H2.5ZM15 5V2.5H17.5V5H15ZM9.16667 3.33333V5V6.66667H10.8333V5V3.33333H9.16667ZM0 10V8.33333H1.66667V10H0ZM15 10H13.3333V11.6667H12.5H10.8333H10H8.33333H6.66667V10H5V11.6667H3.33333H1.66667V10H3.33333V8.33333H5H6.66667H8.33333H10V10H10.8333V8.33333H12.5H13.3333H15V10ZM15 10H16.6667V8.33333H18.3333V10H20V11.6667H18.3333H16.6667H15V10ZM0 12.5V20H7.5V12.5H0ZM10.8333 15V13.3333H12.5H14.1667V15H12.5V16.6667H10.8333V18.3333H9.16667V16.6667V15H10.8333ZM15.8333 18.3333H14.1667V20H12.5V18.3333V16.6667H14.1667V15H15.8333V13.3333H16.6667H17.5H18.3333H20V15V16.6667H18.3333V18.3333H17.5V20H15.8333V18.3333ZM15.8333 18.3333V16.6667H16.6667V18.3333H15.8333ZM18.3333 18.3333L20 18.3333V20H18.3333V18.3333ZM1.66667 14.1667H5.83333V18.3333H1.66667V14.1667ZM2.5 17.5V15H5V17.5H2.5Z" fill="currentColor"/>
</svg>
