<svg width="20" height="11" viewBox="0 0 20 11" fill="none" xmlns="http://www.w3.org/2000/svg">
<path fill-rule="evenodd" clip-rule="evenodd" d="M5.37758 10.9733C5.78992 10.973 6.16149 10.7244 6.31924 10.3435C6.47699 9.96248 6.38988 9.524 6.09849 9.23225L3.41885 6.55261H18.9798C19.5433 6.55261 20 6.09586 20 5.53244C20 4.96902 19.5433 4.51227 18.9798 4.51227H3.19441L6.06449 1.85983C6.39137 1.63424 6.5576 1.23944 6.49055 0.847977C6.4235 0.456511 6.13535 0.139546 5.75203 0.0355988C5.3687 -0.0683481 4.9599 0.0596216 4.70426 0.363583L0.28353 4.44426C-0.0945101 4.98804 -0.0945101 5.70957 0.28353 6.25336L4.70426 10.6741C4.88358 10.8542 5.1237 10.961 5.37758 10.9733Z" fill="white"/>
</svg>
