<svg width="52" height="60" viewBox="0 0 52 60" fill="none" xmlns="http://www.w3.org/2000/svg">
<path id="icon-mobile-pass" fill-rule="evenodd" clip-rule="evenodd" d="M4.6875 0C2.10983 0 0 2.10983 0 4.6875V55.3125C0 57.8902 2.10983 60 4.6875 60H32.8125C35.3902 60 37.5 57.8902 37.5 55.3125V40.3125H35.625V48.75H1.875V9.375H35.625V13.125H37.5V4.6875C37.5 2.10983 35.3902 0 32.8125 0H4.6875ZM4.6875 1.875H32.8125C34.3767 1.875 35.625 3.1233 35.625 4.6875V7.5H1.875V4.6875C1.875 3.1233 3.1233 1.875 4.6875 1.875ZM14.177 4.21488C14.3474 3.92285 14.6619 3.74522 15 3.75H22.5C22.8381 3.74522 23.1526 3.92285 23.323 4.21488C23.4935 4.50691 23.4935 4.86809 23.323 5.16012C23.1526 5.45215 22.8381 5.62978 22.5 5.625H15C14.6619 5.62978 14.3474 5.45215 14.177 5.16012C14.0065 4.86809 14.0065 4.50691 14.177 4.21488ZM11.2024 3.75183C10.9538 3.75134 10.7151 3.84965 10.5389 4.02512C10.3628 4.2006 10.2635 4.43886 10.2631 4.6875C10.2626 4.93614 10.3609 5.17479 10.5364 5.35095C10.7118 5.52711 10.9501 5.62635 11.1987 5.62683C11.4477 5.62732 11.6866 5.52876 11.8628 5.35289C12.039 5.17702 12.1381 4.93829 12.1381 4.68933C12.1381 4.17228 11.7194 3.75284 11.2024 3.75183ZM4.6875 12.1875C4.6875 11.6697 5.10723 11.25 5.625 11.25C6.14277 11.25 6.5625 11.6697 6.5625 12.1875C6.5625 12.7053 6.14277 13.125 5.625 13.125C5.10723 13.125 4.6875 12.7053 4.6875 12.1875ZM5.625 15C5.10723 15 4.6875 15.4197 4.6875 15.9375C4.6875 16.4553 5.10723 16.875 5.625 16.875C6.14277 16.875 6.5625 16.4553 6.5625 15.9375C6.5625 15.4197 6.14277 15 5.625 15ZM15 18.75C15 16.69 16.69 15 18.75 15H47.8125C49.8725 15 51.5625 16.69 51.5625 18.75V34.6875C51.5625 36.7475 49.8725 38.4375 47.8125 38.4375H29.4507L23.4375 44.4507V38.4375H18.75C16.69 38.4375 15 36.7475 15 34.6875V18.75ZM18.75 16.875H47.8125C48.8594 16.875 49.6875 17.7031 49.6875 18.75V34.6875C49.6875 35.7344 48.8594 36.5625 47.8125 36.5625H28.6743L25.3125 39.9243V36.5625H18.75C17.7031 36.5625 16.875 35.7344 16.875 34.6875V18.75C16.875 17.7031 17.7031 16.875 18.75 16.875ZM4.6875 19.6875C4.6875 19.1697 5.10723 18.75 5.625 18.75C6.14277 18.75 6.5625 19.1697 6.5625 19.6875C6.5625 20.2053 6.14277 20.625 5.625 20.625C5.10723 20.625 4.6875 20.2053 4.6875 19.6875ZM5.625 22.5C5.10723 22.5 4.6875 22.9197 4.6875 23.4375C4.6875 23.9553 5.10723 24.375 5.625 24.375C6.14277 24.375 6.5625 23.9553 6.5625 23.4375C6.5625 22.9197 6.14277 22.5 5.625 22.5ZM22.002 24.267L23.4375 25.0964V23.4375H25.3125V25.0964L26.748 24.267L27.6855 25.8893L26.2482 26.7188L27.6855 27.5482L26.748 29.1705L25.3125 28.3411V30H23.4375V28.3411L22.002 29.1705L21.0645 27.5482L22.5018 26.7188L21.0645 25.8893L22.002 24.267ZM32.8125 23.4375V25.0946L31.377 24.267L30.4395 25.8893L31.8768 26.7188L30.4395 27.5482L31.377 29.1705L32.8125 28.3429V30H34.6875V28.3429L36.123 29.1705L37.0605 27.5482L35.6232 26.7188L37.0605 25.8893L36.123 24.267L34.6875 25.0946V23.4375H32.8125ZM40.752 24.267L42.1875 25.0964V23.4375H44.0625V25.0964L45.498 24.267L46.4355 25.8893L44.9982 26.7188L46.4355 27.5482L45.498 29.1705L44.0625 28.3411V30H42.1875V28.3411L40.752 29.1705L39.8145 27.5482L41.2518 26.7188L39.8145 25.8893L40.752 24.267ZM5.625 26.25C5.10723 26.25 4.6875 26.6697 4.6875 27.1875C4.6875 27.7053 5.10723 28.125 5.625 28.125C6.14277 28.125 6.5625 27.7053 6.5625 27.1875C6.5625 26.6697 6.14277 26.25 5.625 26.25ZM4.6875 30.9375C4.6875 30.4197 5.10723 30 5.625 30C6.14277 30 6.5625 30.4197 6.5625 30.9375C6.5625 31.4553 6.14277 31.875 5.625 31.875C5.10723 31.875 4.6875 31.4553 4.6875 30.9375ZM5.625 33.75C5.10723 33.75 4.6875 34.1697 4.6875 34.6875C4.6875 35.2053 5.10723 35.625 5.625 35.625C6.14277 35.625 6.5625 35.2053 6.5625 34.6875C6.5625 34.1697 6.14277 33.75 5.625 33.75ZM4.6875 38.4375C4.6875 37.9197 5.10723 37.5 5.625 37.5C6.14277 37.5 6.5625 37.9197 6.5625 38.4375C6.5625 38.9553 6.14277 39.375 5.625 39.375C5.10723 39.375 4.6875 38.9553 4.6875 38.4375ZM5.625 41.25C5.10723 41.25 4.6875 41.6697 4.6875 42.1875C4.6875 42.7053 5.10723 43.125 5.625 43.125C6.14277 43.125 6.5625 42.7053 6.5625 42.1875C6.5625 41.6697 6.14277 41.25 5.625 41.25ZM4.6875 45.9375C4.6875 45.4197 5.10723 45 5.625 45C6.14277 45 6.5625 45.4197 6.5625 45.9375C6.5625 46.4553 6.14277 46.875 5.625 46.875C5.10723 46.875 4.6875 46.4553 4.6875 45.9375ZM35.625 50.625V55.3125C35.625 56.8767 34.3767 58.125 32.8125 58.125H4.6875C3.1233 58.125 1.875 56.8767 1.875 55.3125V50.625H35.625ZM16.875 54.375C16.875 53.3395 17.7145 52.5 18.75 52.5C19.7855 52.5 20.625 53.3395 20.625 54.375C20.625 55.4105 19.7855 56.25 18.75 56.25C17.7145 56.25 16.875 55.4105 16.875 54.375Z" fill="url(#paint0_linear_0_79)"/>
<defs>
<linearGradient id="paint0_linear_0_79" x1="0" y1="0" x2="63.1316" y2="16.976" gradientUnits="userSpaceOnUse">
<stop stop-color="#00E0FF"/>
<stop offset="1" stop-color="#2DA1F8"/>
</linearGradient>
</defs>
</svg>
