<svg width="24" height="24" viewBox="0 0 24 24" fill="none" xmlns="http://www.w3.org/2000/svg">
<path id="icon-ledger" fill-rule="evenodd" clip-rule="evenodd" d="M3.86027 0H5.71199V5.71199H0V3.86027C0 1.6949 1.77934 0 3.86027 0ZM9.10178 0H20.1397C22.2207 0 23.9216 1.77331 23.9156 3.85423L23.9156 14.8138H9.10178V0ZM0 9.1802H5.71199V14.8922H0V9.1802ZM20.0613 23.994H18.2096V18.288H23.9216V20.1337C23.9216 22.2991 22.1422 23.994 20.0613 23.994ZM9.10178 18.288H14.8138V24H9.10178V18.288ZM0 20.1397V18.288H5.71199V24H3.86027C1.6949 24 0 22.2207 0 20.1397Z" fill="#2DA1F8"/>
</svg>
