<svg width="20" height="23" viewBox="0 0 20 23" fill="none" xmlns="http://www.w3.org/2000/svg">
<path fill-rule="evenodd" clip-rule="evenodd" d="M14.6138 1.24345C17.8542 2.93125 19.876 6.29221 19.8486 9.94579C19.8451 10.3927 19.8108 10.8388 19.7459 11.2809C19.813 11.7337 19.8473 12.1908 19.8486 12.6485C19.8486 18.0221 15.4925 22.3782 10.1189 22.3782C4.74531 22.3782 0.38916 18.0221 0.38916 12.6485C0.390506 12.1908 0.424829 11.7337 0.491863 11.2809C-0.0369 7.6657 1.50427 4.05899 4.48233 1.94227C7.4604 -0.174458 11.3733 -0.444351 14.6138 1.24345ZM18.227 9.94579C18.227 5.4678 14.5969 1.83768 10.1189 1.83768C5.64091 1.83768 2.01078 5.4678 2.01078 9.94579C2.01078 14.4238 5.64091 18.0539 10.1189 18.0539C14.5969 18.0539 18.227 14.4238 18.227 9.94579ZM3.09186 16.6269C4.5218 19.1663 7.20458 20.7429 10.1189 20.7566C13.0506 20.7605 15.7561 19.1814 17.1946 16.6269C15.3642 18.5703 12.8129 19.6721 10.1432 19.6721C7.47355 19.6721 4.92224 18.5703 3.09186 16.6269ZM9.57835 8.47552L8.81619 9.28633L8.82159 9.30254C8.5141 9.62944 7.99984 9.64517 7.67294 9.33768C7.34605 9.03019 7.33032 8.51592 7.63781 8.18903L9.79997 5.89173C10.026 5.65248 10.3743 5.57363 10.6814 5.69219C10.9884 5.81075 11.1934 6.10318 11.2 6.43227V12.6485C11.2 13.0963 10.837 13.4593 10.3892 13.4593C9.94136 13.4593 9.57835 13.0963 9.57835 12.6485V8.47552Z" fill="currentColor"/>
</svg>
