<svg width="20" height="20" viewBox="0 0 20 20" fill="none" xmlns="http://www.w3.org/2000/svg">
<path fill-rule="evenodd" clip-rule="evenodd" d="M18.1818 7.27273H18.6364C18.9988 7.27273 19.3463 7.41702 19.6022 7.67373C19.8581 7.93045 20.0012 8.27846 20 8.64091V11.3682C20 12.1213 19.3895 12.7318 18.6364 12.7318H18.1818C18.058 13.1226 17.9061 13.5039 17.7273 13.8727L18.0409 14.1864C18.5726 14.7188 18.5726 15.5812 18.0409 16.1136L16.1136 18.0409C15.5812 18.5726 14.7188 18.5726 14.1864 18.0409L13.8727 17.7273C13.5039 17.9061 13.1226 18.058 12.7318 18.1818V18.6364C12.7318 19.3895 12.1213 20 11.3682 20H8.64091C7.88779 20 7.27727 19.3895 7.27727 18.6364V18.1818C6.88651 18.058 6.50521 17.9061 6.13636 17.7273L5.81363 18.0318C5.28124 18.5636 4.41876 18.5636 3.88636 18.0318L1.95909 16.1045C1.42736 15.5722 1.42736 14.7097 1.95909 14.1773L2.27273 13.8636C2.0939 13.4948 1.94199 13.1135 1.81818 12.7227H1.36364C0.610521 12.7227 0 12.1122 0 11.3591V8.63182C0 7.8787 0.610521 7.26818 1.36364 7.26818H1.81818C1.94199 6.87742 2.0939 6.49612 2.27273 6.12727L1.95909 5.81364C1.42736 5.28124 1.42736 4.41876 1.95909 3.88636L3.88636 1.95909C4.41876 1.42736 5.28124 1.42736 5.81363 1.95909L6.12727 2.27273C6.49612 2.09391 6.87742 1.942 7.26818 1.81818V1.36364C7.26818 0.610521 7.8787 0 8.63181 0H11.3591C12.1122 0 12.7227 0.610521 12.7227 1.36364V1.81818C13.1135 1.942 13.4948 2.09391 13.8636 2.27273L14.1864 1.96364C14.7188 1.4319 15.5812 1.4319 16.1136 1.96364L18.0409 3.89091C18.5726 4.4233 18.5726 5.28579 18.0409 5.81818L17.7273 6.13182C17.9061 6.50066 18.058 6.88196 18.1818 7.27273ZM17.1409 11.3636H18.6364V8.63636H17.1409C16.9566 7.65945 16.5729 6.73104 16.0136 5.90909L17.0773 4.85909L15.15 2.93182L14.0954 3.98636C13.2735 3.42714 12.3451 3.0434 11.3682 2.85909V1.36364H8.64091V2.85C7.664 3.03431 6.73558 3.41805 5.91363 3.97727L4.85909 2.92273L2.93182 4.85L3.98636 5.90455C3.42714 6.72649 3.0434 7.65491 2.85909 8.63182H1.36364V11.3591H2.85C3.03431 12.336 3.41805 13.2644 3.97727 14.0864L2.92273 15.1409L4.85 17.0682L5.90454 16.0136C6.72643 16.573 7.65487 16.9567 8.63181 17.1409V18.6364H11.3591V17.1455C12.336 16.9613 13.2645 16.5775 14.0864 16.0182L15.1409 17.0727L17.0682 15.1455L16.0136 14.0909C16.5729 13.269 16.9566 12.3405 17.1409 11.3636ZM6.36363 10C6.36363 7.99169 7.99169 6.36364 10 6.36364C12.0083 6.36364 13.6364 7.99169 13.6364 10C13.6364 12.0083 12.0083 13.6364 10 13.6364C7.99169 13.6364 6.36363 12.0083 6.36363 10ZM7.72727 10C7.72727 11.2552 8.7448 12.2727 10 12.2727C11.2552 12.2727 12.2727 11.2552 12.2727 10C12.2727 8.74481 11.2552 7.72727 10 7.72727C8.7448 7.72727 7.72727 8.74481 7.72727 10Z" fill="currentColor"/>
</svg>
