<svg width="66" height="55" viewBox="0 0 66 55" fill="none" xmlns="http://www.w3.org/2000/svg">
<path id="icon-safe" fill-rule="evenodd" clip-rule="evenodd" d="M3.3 0C1.43 0 0 1.43 0 3.3V47.3C0 49.17 1.43 50.6 3.3 50.6H8.8V52.8C8.8 54.01 9.79 55 11 55H15.4C16.61 55 17.6 54.01 17.6 52.8V50.6H48.4V52.8C48.4 54.01 49.39 55 50.6 55H55C56.21 55 57.2 54.01 57.2 52.8V50.6H62.7C64.57 50.6 66 49.17 66 47.3V3.3C66 1.43 64.57 0 62.7 0H3.3ZM3.3 2.2H62.7C63.36 2.2 63.8 2.64 63.8 3.3V47.3C63.8 47.96 63.36 48.4 62.7 48.4H55H50.6H15.4H11H3.3C2.64 48.4 2.2 47.96 2.2 47.3V3.3C2.2 2.64 2.64 2.2 3.3 2.2ZM6.6 9.9C6.6 8.03 8.03 6.6 9.9 6.6H56.1C57.97 6.6 59.4 8.03 59.4 9.9V11C59.4 11.66 58.96 12.1 58.3 12.1C57.64 12.1 57.2 11.66 57.2 11V9.9C57.2 9.24 56.76 8.8 56.1 8.8H9.9C9.24 8.8 8.8 9.24 8.8 9.9V40.7C8.8 41.36 9.24 41.8 9.9 41.8H56.1C56.76 41.8 57.2 41.36 57.2 40.7V39.6C57.2 38.94 57.64 38.5 58.3 38.5C58.96 38.5 59.4 38.94 59.4 39.6V40.7C59.4 42.57 57.97 44 56.1 44H9.9C8.03 44 6.6 42.57 6.6 40.7V9.9ZM57.2 13.2C55.99 13.2 55 14.19 55 15.4V19.8C55 21.01 55.99 22 57.2 22H59.4C60.61 22 61.6 21.01 61.6 19.8V15.4C61.6 14.19 60.61 13.2 59.4 13.2H57.2ZM22 25.3C22 19.25 26.95 14.3 33 14.3C39.05 14.3 44 19.25 44 25.3C44 31.35 39.05 36.3 33 36.3C26.95 36.3 22 31.35 22 25.3ZM12.1 15.4C11.44 15.4 11 15.84 11 16.5V34.1C11 34.76 11.44 35.2 12.1 35.2C12.76 35.2 13.2 34.76 13.2 34.1V16.5C13.2 15.84 12.76 15.4 12.1 15.4ZM59.4 15.4H57.2V19.8H59.4V15.4ZM33 16.2809C37.95 16.2809 42.0191 20.35 42.0191 25.3C42.0191 30.25 37.95 34.3191 33 34.3191C28.05 34.3191 23.9809 30.25 23.9809 25.3C23.9809 20.35 28.05 16.2809 33 16.2809ZM31.9 18.7C31.9 18.04 32.34 17.6 33 17.6C33.66 17.6 34.1 18.04 34.1 18.7V20.6809C34.1 21.3409 33.66 21.7809 33 21.7809C32.34 21.7809 31.9 21.3409 31.9 20.6809V18.7ZM28.3809 19.4691C28.1059 19.4691 27.8296 19.58 27.6096 19.8C27.1696 20.24 27.1696 20.9004 27.6096 21.3404L29.0404 22.7691C29.2604 22.9891 29.5896 23.1 29.8096 23.1C30.0296 23.1 30.3609 22.9891 30.5809 22.7691C31.0209 22.3291 31.0209 21.6709 30.5809 21.2309L29.15 19.8C28.93 19.58 28.6559 19.4691 28.3809 19.4691ZM36.9596 19.8C37.1796 19.58 37.4559 19.4691 37.7309 19.4691C38.0059 19.4691 38.28 19.58 38.5 19.8C38.94 20.24 38.94 20.9004 38.5 21.3404L37.0691 22.7691C36.8491 22.9891 36.63 23.1 36.3 23.1C35.97 23.1 35.7509 22.9891 35.5309 22.7691C35.0909 22.3291 35.0909 21.6709 35.5309 21.2309L36.9596 19.8ZM58.3 23.1C57.64 23.1 57.2 23.54 57.2 24.2V26.4C57.2 27.06 57.64 27.5 58.3 27.5C58.96 27.5 59.4 27.06 59.4 26.4V24.2C59.4 23.54 58.96 23.1 58.3 23.1ZM25.3 25.3C25.3 24.64 25.74 24.2 26.4 24.2H28.3809C29.0409 24.2 29.4809 24.64 29.4809 25.3C29.4809 25.96 29.0409 26.4 28.3809 26.4H26.4C25.74 26.4 25.3 25.96 25.3 25.3ZM37.6191 24.2C36.9591 24.2 36.5191 24.64 36.5191 25.3C36.5191 25.96 36.9591 26.4 37.6191 26.4H39.6C40.26 26.4 40.7 25.96 40.7 25.3C40.7 24.64 40.26 24.2 39.6 24.2H37.6191ZM35.4191 27.6096C35.6391 27.3896 35.9154 27.2809 36.1904 27.2809C36.4654 27.2809 36.7396 27.3896 36.9596 27.6096L38.3904 29.0404C38.8304 29.4804 38.8304 30.1409 38.3904 30.5809C38.1704 30.8009 37.8391 30.9096 37.6191 30.9096C37.3991 30.9096 37.07 30.8009 36.85 30.5809L35.4191 29.15C34.9791 28.71 34.9791 28.0496 35.4191 27.6096ZM29.8096 27.3904C29.5346 27.3904 29.2604 27.4991 29.0404 27.7191L27.6096 29.15C27.1696 29.59 27.1696 30.2504 27.6096 30.6904C27.8296 30.9104 28.1609 31.0191 28.3809 31.0191C28.6009 31.0191 28.93 30.9104 29.15 30.6904L30.5809 29.2596C31.0209 28.8196 31.0209 28.1591 30.5809 27.7191C30.3609 27.4991 30.0846 27.3904 29.8096 27.3904ZM31.9 29.7C31.9 29.04 32.34 28.6 33 28.6C33.66 28.6 34.1 29.04 34.1 29.7V31.6809C34.1 32.3409 33.66 32.7809 33 32.7809C32.34 32.7809 31.9 32.3409 31.9 31.6809V29.7ZM57.2 28.6C55.99 28.6 55 29.59 55 30.8V35.2C55 36.41 55.99 37.4 57.2 37.4H59.4C60.61 37.4 61.6 36.41 61.6 35.2V30.8C61.6 29.59 60.61 28.6 59.4 28.6H57.2ZM59.4 30.8H57.2V35.2H59.4V30.8ZM15.4 50.6V52.8H11V50.6H15.4ZM55 50.6H50.6V52.8H55V50.6Z" fill="url(#paint0_linear_0_1425)"/>
<defs>
<linearGradient id="paint0_linear_0_1425" x1="0" y1="0" x2="75.9444" y2="28.5156" gradientUnits="userSpaceOnUse">
<stop stop-color="#00E0FF"/>
<stop offset="1" stop-color="#2DA1F8"/>
</linearGradient>
</defs>
</svg>
