<svg width="20" height="20" viewBox="0 0 20 20" fill="none" xmlns="http://www.w3.org/2000/svg">
<mask id="path-1-inside-1_525_777" fill="white">
<path fill-rule="evenodd" clip-rule="evenodd" d="M7 15H2C1.44728 15 1 15.4473 1 16V18C1 18.5527 1.44728 19 2 19H7C7.55272 19 8 18.5527 8 18V16C8 15.4473 7.55272 15 7 15ZM2 14H7C8.105 14 9 14.895 9 16V18C9 19.105 8.105 20 7 20H2C0.895 20 0 19.105 0 18V16C0 14.895 0.895 14 2 14ZM18 1H13C12.4473 1 12 1.44728 12 2V4C12 4.55272 12.4473 5 13 5H18C18.5527 5 19 4.55272 19 4V2C19 1.44728 18.5527 1 18 1ZM13 0H18C19.105 0 20 0.895 20 2V4C20 5.105 19.105 6 18 6H13C11.895 6 11 5.105 11 4V2C11 0.895 11.895 0 13 0ZM18 9H13C12.4473 9 12 9.44728 12 10V18C12 18.5527 12.4473 19 13 19H18C18.5527 19 19 18.5527 19 18V10C19 9.44728 18.5527 9 18 9ZM13 8H18C19.105 8 20 8.895 20 10V18C20 19.105 19.105 20 18 20H13C11.895 20 11 19.105 11 18V10C11 8.895 11.895 8 13 8ZM7 1H2C1.44728 1 1 1.44728 1 2V10C1 10.5527 1.44728 11 2 11H7C7.55272 11 8 10.5527 8 10V2C8 1.44728 7.55272 1 7 1ZM2 0H7C8.105 0 9 0.895 9 2V10C9 11.105 8.105 12 7 12H2C0.895 12 0 11.105 0 10V2C0 0.895 0.895 0 2 0Z"/>
</mask>
<path d="M2 16.5H7V13.5H2V16.5ZM2.5 16C2.5 16.2757 2.27571 16.5 2 16.5V13.5C0.618858 13.5 -0.5 14.6189 -0.5 16H2.5ZM2.5 18V16H-0.5V18H2.5ZM2 17.5C2.27571 17.5 2.5 17.7243 2.5 18H-0.5C-0.5 19.3811 0.618858 20.5 2 20.5V17.5ZM7 17.5H2V20.5H7V17.5ZM6.5 18C6.5 17.7243 6.72429 17.5 7 17.5V20.5C8.38114 20.5 9.5 19.3811 9.5 18H6.5ZM6.5 16V18H9.5V16H6.5ZM7 16.5C6.72429 16.5 6.5 16.2757 6.5 16H9.5C9.5 14.6189 8.38114 13.5 7 13.5V16.5ZM7 12.5H2V15.5H7V12.5ZM10.5 16C10.5 14.0666 8.93343 12.5 7 12.5V15.5C7.27657 15.5 7.5 15.7234 7.5 16H10.5ZM10.5 18V16H7.5V18H10.5ZM7 21.5C8.93343 21.5 10.5 19.9334 10.5 18H7.5C7.5 18.2766 7.27657 18.5 7 18.5V21.5ZM2 21.5H7V18.5H2V21.5ZM-1.5 18C-1.5 19.9334 0.0665729 21.5 2 21.5V18.5C1.72343 18.5 1.5 18.2766 1.5 18H-1.5ZM-1.5 16V18H1.5V16H-1.5ZM2 12.5C0.0665729 12.5 -1.5 14.0666 -1.5 16H1.5C1.5 15.7234 1.72343 15.5 2 15.5V12.5ZM13 2.5H18V-0.5H13V2.5ZM13.5 2C13.5 2.27571 13.2757 2.5 13 2.5V-0.5C11.6189 -0.5 10.5 0.618858 10.5 2H13.5ZM13.5 4V2H10.5V4H13.5ZM13 3.5C13.2757 3.5 13.5 3.72429 13.5 4H10.5C10.5 5.38114 11.6189 6.5 13 6.5V3.5ZM18 3.5H13V6.5H18V3.5ZM17.5 4C17.5 3.72429 17.7243 3.5 18 3.5V6.5C19.3811 6.5 20.5 5.38114 20.5 4H17.5ZM17.5 2V4H20.5V2H17.5ZM18 2.5C17.7243 2.5 17.5 2.27571 17.5 2H20.5C20.5 0.618858 19.3811 -0.5 18 -0.5V2.5ZM18 -1.5H13V1.5H18V-1.5ZM21.5 2C21.5 0.0665726 19.9334 -1.5 18 -1.5V1.5C18.2766 1.5 18.5 1.72343 18.5 2H21.5ZM21.5 4V2H18.5V4H21.5ZM18 7.5C19.9334 7.5 21.5 5.93343 21.5 4H18.5C18.5 4.27657 18.2766 4.5 18 4.5V7.5ZM13 7.5H18V4.5H13V7.5ZM9.5 4C9.5 5.93343 11.0666 7.5 13 7.5V4.5C12.7234 4.5 12.5 4.27657 12.5 4H9.5ZM9.5 2V4H12.5V2H9.5ZM13 -1.5C11.0666 -1.5 9.5 0.0665729 9.5 2H12.5C12.5 1.72343 12.7234 1.5 13 1.5V-1.5ZM13 10.5H18V7.5H13V10.5ZM13.5 10C13.5 10.2757 13.2757 10.5 13 10.5V7.5C11.6189 7.5 10.5 8.61886 10.5 10H13.5ZM13.5 18V10H10.5V18H13.5ZM13 17.5C13.2757 17.5 13.5 17.7243 13.5 18H10.5C10.5 19.3811 11.6189 20.5 13 20.5V17.5ZM18 17.5H13V20.5H18V17.5ZM17.5 18C17.5 17.7243 17.7243 17.5 18 17.5V20.5C19.3811 20.5 20.5 19.3811 20.5 18H17.5ZM17.5 10V18H20.5V10H17.5ZM18 10.5C17.7243 10.5 17.5 10.2757 17.5 10H20.5C20.5 8.61886 19.3811 7.5 18 7.5V10.5ZM18 6.5H13V9.5H18V6.5ZM21.5 10C21.5 8.06657 19.9334 6.5 18 6.5V9.5C18.2766 9.5 18.5 9.72343 18.5 10H21.5ZM21.5 18V10H18.5V18H21.5ZM18 21.5C19.9334 21.5 21.5 19.9334 21.5 18H18.5C18.5 18.2766 18.2766 18.5 18 18.5V21.5ZM13 21.5H18V18.5H13V21.5ZM9.5 18C9.5 19.9334 11.0666 21.5 13 21.5V18.5C12.7234 18.5 12.5 18.2766 12.5 18H9.5ZM9.5 10V18H12.5V10H9.5ZM13 6.5C11.0666 6.5 9.5 8.06657 9.5 10H12.5C12.5 9.72343 12.7234 9.5 13 9.5V6.5ZM2 2.5H7V-0.5H2V2.5ZM2.5 2C2.5 2.27571 2.27571 2.5 2 2.5V-0.5C0.618858 -0.5 -0.5 0.618858 -0.5 2H2.5ZM2.5 10V2H-0.5V10H2.5ZM2 9.5C2.27571 9.5 2.5 9.72429 2.5 10H-0.5C-0.5 11.3811 0.618858 12.5 2 12.5V9.5ZM7 9.5H2V12.5H7V9.5ZM6.5 10C6.5 9.72429 6.72429 9.5 7 9.5V12.5C8.38114 12.5 9.5 11.3811 9.5 10H6.5ZM6.5 2V10H9.5V2H6.5ZM7 2.5C6.72429 2.5 6.5 2.27571 6.5 2H9.5C9.5 0.618858 8.38114 -0.5 7 -0.5V2.5ZM7 -1.5H2V1.5H7V-1.5ZM10.5 2C10.5 0.0665726 8.93343 -1.5 7 -1.5V1.5C7.27657 1.5 7.5 1.72343 7.5 2H10.5ZM10.5 10V2H7.5V10H10.5ZM7 13.5C8.93343 13.5 10.5 11.9334 10.5 10H7.5C7.5 10.2766 7.27657 10.5 7 10.5V13.5ZM2 13.5H7V10.5H2V13.5ZM-1.5 10C-1.5 11.9334 0.0665726 13.5 2 13.5V10.5C1.72343 10.5 1.5 10.2766 1.5 10H-1.5ZM-1.5 2V10H1.5V2H-1.5ZM2 -1.5C0.0665729 -1.5 -1.5 0.0665729 -1.5 2H1.5C1.5 1.72343 1.72343 1.5 2 1.5V-1.5Z" fill="currentColor" mask="url(#path-1-inside-1_525_777)"/>
</svg>
