<svg width="64" height="66" viewBox="0 0 64 66" fill="none" xmlns="http://www.w3.org/2000/svg">
<path id="icon-password-ok" fill-rule="evenodd" clip-rule="evenodd" d="M27.0339 0C15.7045 0 6.48814 9.3753 6.48814 20.9V26.4H3.24407C1.45983 26.4 0 27.885 0 29.7V62.7C0 64.515 1.45983 66 3.24407 66H52.9864C54.7707 66 56.2305 64.515 56.2305 62.7V56.375C60.6641 54.615 63.8 50.226 63.8 45.1C63.8 39.974 60.6641 35.585 56.2305 33.825V29.7C56.2305 27.885 54.7707 26.4 52.9864 26.4H49.7424V20.9C49.7424 9.3753 40.526 0 29.1966 0H27.0339ZM27.0339 2.2H29.1966C29.4669 2.2 29.7319 2.21852 29.9973 2.23707L29.9973 2.23707C30.0907 2.2436 30.1842 2.25013 30.278 2.25586V6.65586C29.92 6.62726 29.5621 6.6 29.1966 6.6H27.0339C26.6684 6.6 26.3105 6.62726 25.9525 6.65586V2.25586C26.0463 2.25013 26.1398 2.2436 26.2332 2.23707L26.2332 2.23707C26.4986 2.21852 26.7636 2.2 27.0339 2.2ZM23.7898 6.99961V2.50938C15.1974 4.07468 8.65085 11.7161 8.65085 20.9V26.4H12.9763V20.9C12.9763 14.1526 17.6001 8.49561 23.7898 6.99961ZM32.4407 2.50938C41.0331 4.07468 47.5797 11.7161 47.5797 20.9V26.4H43.2542V20.9C43.2542 14.1526 38.6304 8.49561 32.4407 6.99961V2.50938ZM29.1966 8.8H27.0339C20.4755 8.8 15.139 14.2285 15.139 20.9V26.4H41.0915V20.9C41.0915 14.2285 35.755 8.8 29.1966 8.8ZM3.24407 28.6H6.48814H12.9763H43.2542H49.7424H52.9864C53.5812 28.6 54.0678 29.095 54.0678 29.7V33.1977C53.3649 33.0657 52.6404 33 51.9051 33C45.3413 33 40.0102 38.423 40.0102 45.1C40.0102 51.777 45.3413 57.2 51.9051 57.2C52.6404 57.2 53.3649 57.1343 54.0678 57.0023V62.7C54.0678 63.305 53.5812 63.8 52.9864 63.8H3.24407C2.64932 63.8 2.16271 63.305 2.16271 62.7V29.7C2.16271 29.095 2.64932 28.6 3.24407 28.6ZM54.0678 35.4428C53.3757 35.2888 52.6512 35.2 51.9051 35.2C46.5416 35.2 42.1729 39.644 42.1729 45.1C42.1729 50.556 46.5416 55 51.9051 55C52.6512 55 53.3757 54.9112 54.0678 54.7572C54.8247 54.5812 55.5493 54.3076 56.2305 53.9666C59.4313 52.3496 61.6373 48.983 61.6373 45.1C61.6373 41.217 59.4313 37.8504 56.2305 36.2334C55.5493 35.8924 54.8247 35.6188 54.0678 35.4428ZM56.2305 41.0652C55.9537 41.0652 55.6774 41.1746 55.466 41.3896L50.4647 46.4793L48.3442 44.3223C47.9214 43.8922 47.24 43.8922 46.8172 44.3223C46.3944 44.7524 46.3944 45.4476 46.8172 45.8777L49.7001 48.8104C49.9034 49.0172 50.1781 49.1348 50.4647 49.1348C50.7512 49.1348 51.027 49.0172 51.2292 48.8104L56.9951 42.943C57.4179 42.5129 57.4179 41.8197 56.9951 41.3896C56.7837 41.1746 56.5073 41.0652 56.2305 41.0652ZM10.8136 44C10.8136 42.785 11.7818 41.8 12.9763 41.8C14.1707 41.8 15.139 42.785 15.139 44C15.139 45.215 14.1707 46.2 12.9763 46.2C11.7818 46.2 10.8136 45.215 10.8136 44ZM22.7085 41.8C21.514 41.8 20.5458 42.785 20.5458 44C20.5458 45.215 21.514 46.2 22.7085 46.2C23.9029 46.2 24.8712 45.215 24.8712 44C24.8712 42.785 23.9029 41.8 22.7085 41.8ZM30.278 44C30.278 42.785 31.2462 41.8 32.4407 41.8C33.6351 41.8 34.6034 42.785 34.6034 44C34.6034 45.215 33.6351 46.2 32.4407 46.2C31.2462 46.2 30.278 45.215 30.278 44ZM5.40678 59.4C4.80987 59.4 4.32542 59.8917 4.32542 60.5C4.32542 61.1083 4.80987 61.6 5.40678 61.6H42.1729C42.7698 61.6 43.2542 61.1083 43.2542 60.5C43.2542 59.8917 42.7698 59.4 42.1729 59.4H5.40678ZM45.417 60.5C45.417 59.8917 45.9014 59.4 46.4983 59.4H50.8237C51.4206 59.4 51.9051 59.8917 51.9051 60.5C51.9051 61.1083 51.4206 61.6 50.8237 61.6H46.4983C45.9014 61.6 45.417 61.1083 45.417 60.5Z" fill="url(#paint0_linear_0_1504)"/>
<defs>
<linearGradient id="paint0_linear_0_1504" x1="0" y1="0" x2="76.742" y2="23.2122" gradientUnits="userSpaceOnUse">
<stop stop-color="#00E0FF"/>
<stop offset="1" stop-color="#2DA1F8"/>
</linearGradient>
</defs>
</svg>
