<svg width="19" height="20" viewBox="0 0 19 20" fill="none" xmlns="http://www.w3.org/2000/svg">
<path fill-rule="evenodd" clip-rule="evenodd" d="M9.23192 0C6.69695 0 4.61653 2.08042 4.61653 4.61538H1.53961C1.13069 4.61481 0.79278 4.93424 0.770379 5.34255L0.00114814 19.1887C-0.0103967 19.3999 0.0655186 19.6065 0.211045 19.76C0.356572 19.9135 0.558871 20.0003 0.770379 20H17.6935C17.905 20.0003 18.1073 19.9135 18.2528 19.76C18.3983 19.6065 18.4742 19.3999 18.4627 19.1887L17.6935 5.34255C17.6711 4.93424 17.3331 4.61481 16.9242 4.61538H13.8473C13.8473 2.08042 11.7669 0 9.23192 0ZM9.23192 1.53846C10.9277 1.53846 12.3088 2.91958 12.3088 4.61538H6.15499C6.15499 2.91958 7.53611 1.53846 9.23192 1.53846ZM4.61653 6.15385H2.26677L1.58468 18.4615H16.8792L16.1941 6.15385H13.8473V9.23077H12.3088V6.15385H6.15499V9.23077H4.61653V6.15385Z" fill="currentColor"/>
</svg>
