<svg width="14" height="16" viewBox="0 0 14 16" fill="none" xmlns="http://www.w3.org/2000/svg">
<path id="icon-err-warning" fill-rule="evenodd" clip-rule="evenodd" d="M6.82051 0C12.2374 0 13.3969 1.41077 13.6087 2.25077C13.6302 2.33646 13.641 2.42448 13.641 2.51282V7.28718C13.6353 10.2638 12.0279 13.0069 9.43385 14.4667L7.34821 15.6405C7.02052 15.8247 6.62051 15.8247 6.29282 15.6405L4.20718 14.4667C1.61315 13.0069 0.00569632 10.2638 0 7.28718V2.51282C0 2.26872 0.096923 1.44308 1.31385 0.832821C2.4159 0.28 4.26821 0 6.82051 0ZM8.90615 13.5333C11.166 12.2614 12.5643 9.86961 12.5641 7.27641V2.51282C12.5641 2.51282 12.2051 1.07692 6.82051 1.07692C1.07692 1.07692 1.07692 2.51282 1.07692 2.51282V7.28718C1.07677 9.88038 2.47505 12.2721 4.73487 13.5441L6.82051 14.7179L8.90615 13.5333ZM8.95282 4.64513C9.16305 4.43516 9.50362 4.43516 9.71385 4.64513C9.92381 4.85536 9.92381 5.19593 9.71385 5.40615L7.58154 7.53846L9.71385 9.67077C9.8579 9.805 9.9172 10.0072 9.86848 10.198C9.81976 10.3887 9.67078 10.5377 9.48 10.5864C9.28922 10.6352 9.08706 10.5759 8.95282 10.4318L6.82051 8.29949L4.68821 10.4318C4.55397 10.5759 4.35181 10.6352 4.16102 10.5864C3.97024 10.5377 3.82127 10.3887 3.77254 10.198C3.72382 10.0072 3.78312 9.805 3.92718 9.67077L6.05949 7.53846L3.92718 5.40615C3.72949 5.19399 3.73532 4.86338 3.94037 4.65832C4.14543 4.45327 4.47604 4.44743 4.68821 4.64513L6.82051 6.77744L8.95282 4.64513Z" fill="#FF6A6A"/>
</svg>
