<svg width="58" height="66" viewBox="0 0 58 66" fill="none" xmlns="http://www.w3.org/2000/svg">
<path id="icon-password-forgot" fill-rule="evenodd" clip-rule="evenodd" d="M27.5 0C15.9753 0 6.6 9.3753 6.6 20.9V26.4H3.3C1.4806 26.4 0 27.8806 0 29.7V62.7C0 64.5194 1.4806 66 3.3 66H53.9C55.7194 66 57.2 64.5194 57.2 62.7V29.7C57.2 27.8806 55.7194 26.4 53.9 26.4H50.6V20.9C50.6 9.3753 41.2247 0 29.7 0H27.5ZM27.5 2.2H29.7C29.975 2.2 30.2445 2.21852 30.5145 2.23707C30.6095 2.2436 30.7046 2.25013 30.8 2.25586V6.65586C30.4359 6.62726 30.0718 6.6 29.7 6.6H27.5C27.1282 6.6 26.7641 6.62726 26.4 6.65586V2.25586C26.4952 2.25014 26.5901 2.24362 26.6849 2.23711L26.685 2.2371L26.685 2.2371L26.6851 2.23709L26.6852 2.23709L26.6852 2.23708L26.6853 2.23708L26.6854 2.23708L26.6855 2.23707L26.6855 2.23707C26.9555 2.21852 27.225 2.2 27.5 2.2ZM24.2 6.99961V2.50938C15.4594 4.07468 8.8 11.7161 8.8 20.9V26.4H13.2V20.9C13.2 14.1526 17.9036 8.49561 24.2 6.99961ZM33 2.50938C41.7406 4.07468 48.4 11.7161 48.4 20.9V26.4H44V20.9C44 14.1526 39.2964 8.49561 33 6.99961V2.50938ZM29.7 8.8H27.5C20.8285 8.8 15.4 14.2285 15.4 20.9V26.4H41.8V20.9C41.8 14.2285 36.3715 8.8 29.7 8.8ZM3.3 28.6H6.6H13.2H44H50.6H53.9C54.5061 28.6 55 29.0928 55 29.7V62.7C55 63.3072 54.5061 63.8 53.9 63.8H3.3C2.6939 63.8 2.2 63.3072 2.2 62.7V29.7C2.2 29.0928 2.6939 28.6 3.3 28.6ZM11 44C11 42.785 11.985 41.8 13.2 41.8C14.415 41.8 15.4 42.785 15.4 44C15.4 45.215 14.415 46.2 13.2 46.2C11.985 46.2 11 45.215 11 44ZM23.1 41.8C21.885 41.8 20.9 42.785 20.9 44C20.9 45.215 21.885 46.2 23.1 46.2C24.315 46.2 25.3 45.215 25.3 44C25.3 42.785 24.315 41.8 23.1 41.8ZM30.8 44C30.8 42.785 31.785 41.8 33 41.8C34.215 41.8 35.2 42.785 35.2 44C35.2 45.215 34.215 46.2 33 46.2C31.785 46.2 30.8 45.215 30.8 44ZM5.5 59.4C4.8928 59.4 4.4 59.8917 4.4 60.5C4.4 61.1083 4.8928 61.6 5.5 61.6H42.9C43.5072 61.6 44 61.1083 44 60.5C44 59.8917 43.5072 59.4 42.9 59.4H5.5ZM36 38.0364C36 35.8104 37.8496 34 40.1257 34H43.3028C45.579 34 47.4286 35.8104 47.4286 38.0364V40.0874C47.4286 41.4673 46.6551 42.7282 45.4122 43.3758L44.9639 43.6087C43.5468 44.3476 42.6667 45.783 42.6667 47.354C42.6667 47.8683 42.241 48.2857 41.7143 48.2857C41.1876 48.2857 40.7619 47.8683 40.7619 47.354C40.7619 45.0935 42.0292 43.0295 44.0673 41.9654L44.5156 41.7325C45.1385 41.4082 45.5238 40.7778 45.5238 40.0874V38.0364C45.5238 36.8382 44.5276 35.8635 43.3028 35.8635H40.1257C38.901 35.8635 37.9048 36.8382 37.9048 38.0364C37.9048 38.5507 37.479 38.9682 36.9524 38.9682C36.4257 38.9682 36 38.5517 36 38.0364ZM39.8095 52.0952C39.8095 51.0433 40.6623 50.1905 41.7143 50.1905C42.7663 50.1905 43.619 51.0433 43.619 52.0952C43.619 53.1472 42.7663 54 41.7143 54C40.6623 54 39.8095 53.1472 39.8095 52.0952ZM47.3 59.4C46.6928 59.4 46.2 59.8917 46.2 60.5C46.2 61.1083 46.6928 61.6 47.3 61.6H51.7C52.3072 61.6 52.8 61.1083 52.8 60.5C52.8 59.8917 52.3072 59.4 51.7 59.4H47.3Z" fill="url(#paint0_linear_0_518)"/>
<defs>
<linearGradient id="paint0_linear_0_518" x1="0" y1="0" x2="69.9536" y2="18.97" gradientUnits="userSpaceOnUse">
<stop stop-color="#00E0FF"/>
<stop offset="1" stop-color="#2DA1F8"/>
</linearGradient>
</defs>
</svg>
