<svg width="20" height="20" viewBox="0 0 20 20" fill="none" xmlns="http://www.w3.org/2000/svg">
<path fill-rule="evenodd" clip-rule="evenodd" d="M10 0C4.47715 0 0 4.47715 0 10C0 15.5228 4.47715 20 10 20C15.5228 20 20 15.5228 20 10C20 4.47715 15.5228 0 10 0ZM1.36364 10C1.36336 6.21753 3.82446 2.875 7.43646 1.75225C11.0485 0.629492 14.9708 1.98779 17.1148 5.10388C19.2589 8.21997 19.1258 12.3687 16.7864 15.3409C15.7444 13.789 14.2326 12.6117 12.4727 11.9818C13.2333 11.1677 13.6502 10.0913 13.6364 8.97727C13.6364 6.70455 12.0045 4.88636 10 4.88636C7.99546 4.88636 6.36364 6.70455 6.36364 8.97727C6.35234 10.1311 6.80425 11.2412 7.61818 12.0591C5.84578 12.6953 4.35081 13.9299 3.39091 15.55C2.08054 13.9977 1.36232 12.0314 1.36364 10ZM10.2273 11.5909C9.97826 11.5919 9.72945 11.6056 9.48182 11.6318C8.37561 11.2307 7.66279 10.1522 7.72727 8.97727C7.72727 7.47273 8.74545 6.25 10 6.25C11.2545 6.25 12.2727 7.47273 12.2727 8.97727C12.3287 10.1191 11.6583 11.1721 10.6 11.6045C10.4773 11.6 10.3545 11.5909 10.2273 11.5909ZM4.4 16.5909C5.38794 14.6622 7.25372 13.3358 9.4 13.0364C9.84249 13.1228 10.2985 13.1119 10.7364 13.0045C12.8575 13.291 14.7303 14.5339 15.8182 16.3773C12.6127 19.336 7.7002 19.4278 4.38636 16.5909H4.4Z" fill="currentColor"/>
</svg>
